<svg id="Layer_1" data-name="Layer 1" xmlns="http://www.w3.org/2000/svg" viewBox="0 0 1190.55 841.89"><defs><style>.cls-1{fill:#ce0e2d;}.cls-2{fill:#1a428a;}.cls-3{fill:#009845;}.cls-4{fill:#f3e500;stroke:#fd0;stroke-miterlimit:10;}.cls-5{fill:#231f20;}.cls-6{fill:#e1251b;}</style></defs><path class="cls-1" d="M836,262.32s.5-5.5,5.25-5.75v2.88H844v2.87l2.5-1.25v1.25l2,1.25v1.25h5.25v2.25h3v7.75l3.25,2.5h1.75l1.75,1.25v1h4.25s-.5,3.25,0,4,3.25,0,3.25,0v1.5h6.5v2.5l-2,1.25.5,3.25-1.25,2.25.5,3,.75,3,1.5,2,3.75,2.25-1.5,2.5,1.5,4.75-2,2.25,2,2.5v5.25s-2.5-1.25-2.25,0l.25,1.25.75,3,1.25,1.25s-.75,1,0,1.75,0,2.75,0,2.75l-2.5,1.75-3.25,3-1.5,3h-4.75l-3.75,4.5-6.71,2.5-5.29,2.25-1.75,3.75L850,353.82s-4.75,3-4.5,3.75-3.75,5-3.75,5-3,2-3.25,3.25a13,13,0,0,1-1.25,3l-1.25,2.5h-1.25l-2,5-4.25,8.25-4.25,6.25s-4.25,4-3.75,4.75-11.5,9.64-12,15.2c0,0-5.25,2.3-7.5,3.05l-4.5,4-6.25,6-4,3v2l-1.5,2.25v1.5h-4.5v4l-2.5,2.75h-2.5v3.5h-6.5l-1.75,2.5-3.75,1.75H760v3.75l-1.25,3.25-1.5,4.25v2.25l-1.5,1.25L753,463.57v1.5h-5l-1.25,3-1.25,1.5-1.5,2a9.44,9.44,0,0,0-1.25,2,12.18,12.18,0,0,1-2,2.5h-1.5v2l-2.75,2v1h-4.75s-14.5,14.75-19,21l-5.25,4.5v4.25H704a15.7,15.7,0,0,1-7.25,5.75,12.5,12.5,0,0,0-3.25,6s.25,4.25-9.25,8.5l-4.5,2.75s0,7-8,6.25c0,0,.5,7.75-8,5.5,0,0,1.25,8-8.25,8.25l-2.5,4.5v1.5h-2.5v3.25l-2.25,1.5h-2.5s-2.5,3-2.5,3.75v3h-2.75v1.5h-3.75l-2,2.75-2.5,2.5v4.25l-3,2s-2.75.75-3,1.5-3.25,2.25-3.25,2.25v2l-1.5,2h-2.25v3.5l-2.75,2-1.75,1.25-2,2h-2l-3.25,2.75v2.75s-1.75,1.75-1.75,2.5v6.25l-3,3.5L599,621.32l-2.5,3.25v4.75l-5.25,4.25-3.5,4.25-2,2.75v6l-2.48,3.25v3.25l-5.52,6s-2,7.75-1.75,8.5-3.5,4.25-3.5,4.25l2.25,14.5s-5.5,11-12.5,11.5l-4.5,1.5s-6.25,3.75-9,0l-3.75.5-2.25-1-1.25-1.25-1.25-1.25-2.75-1v-2h-3.25l-2.75-.25-1.25.25-4.25-.5v-3.5l-14,.25v-4.75l-2.25-1v2l-3.5,1.5L504,685.57v-3.75l-7.5-.5v-1.75l-3.25-2.5-2-1.5v-8.5l-5-1.25-1.75-11-3-2.75v-6.25l3-6.25,2.5-3.75,2.5-1,1.25-3.75,3.75-8.5,1.5-3,3.25-2.5,4-.75,7.75-4.5,5-1.5,4.75-3.75,3-1.25,2-1.5.75-2.25,2.5-1.25s2.25-2.25,3-3.25,2.5-3.5,3.25-3.75,1.5-2.25,1.5-2.25l1.75-3.5,3.5-2.5.75-2.75,2.5-1.75,5.75-5.75s7.25-13.5,10.5-18.75a25,25,0,0,1,17.5-10l6.5-5,6.75-9.25,4.25-6.5,1.5-3.25,1.25-4,1.75-3.75,3.25-4v-5.75l1.75-5.5,3.75-5.75,3.5-5.5,3.75-1.75,3.25-1,3.5-2,3.25-3.25,3.25-4.5,4-5.25s2.5-4.5,3.25-4.25,3.5-4.5,3.5-4.5l2.75-2.75,4-1.75,4.25-3.5,3.75-4,4.5-5.75,2.5-4.5,3-4,5-6,3.75-3.5,1.75-.75.5-2.75,2.5-1.75,2.29-2.25,3.21-2.5,1-2,2.5-2.8,2.25-3.45,2-3.5,2.5-3.5,3.5-3.75,3-.75,2.25-1.25,2.25-2.75,4-3,5-3.25,3.75-2.75,3-3,3-1.5,4-4,3.5-3,2.75-5.75,5.75-6,4.75-3.25,5-4,2.5-3.75,4.5-1.75,3.5-3.75,2-4,3.5-2.25,4-3.25,5.5-4.25,5.25-2.5,4.5-3,3-1.5,2-3,2.75-2.5,3.75-1.5,2.5-3.75s2.5-3.75,3.25-3.5,2-3,2-3l2.5-2h3l2.5-3.25,2.25-7a3.72,3.72,0,0,1,1.75,0c.75.25,1-3.75,1-3.75l2.5-.5,1.5-5.5,1.5-3.5,4.5-5.75,1.25-2.75v-3Z"/><path class="cls-2" d="M733.54,233.07s1.25-7.5,9.5-2.75l5.5.59,4.25-1.09v1.09H757v2.16h3.5l1.25-2.16h4v2.16s-1.5,1.5,0,2.25l1.5.75h2.25s-.75-.5,0,1a3.62,3.62,0,0,1,0,3h3l2.25-1.75a1.73,1.73,0,0,1,1.25,0l.75.25h0l1.5,1.5H781a2.64,2.64,0,0,1,1.5,0,40,40,0,0,0,5.5,0l3.75.11v3.39l2,2.75h2l4.25-1.25a10.8,10.8,0,0,1,4.5,4.5h9.25l2.5,4.5h4.5l4.5,4.25v13.5L822,277.07l-.5,3h-1l-.25,2.5-2,2,1,4.25h-3l-.75,1.5h-2v3.75h-1.25l-1,3.75L809,300.57l-1.5,2.5-1.86,1.49h-3.39l-.25,2.26-2.25,4.75s-3-3.75-2.75,0a5,5,0,0,1-2.88,5H789v2l-2,1.25-1,2.25h-2.5l-2.5,1.25s-5.54,2.1-6.5,5l-2,1.75h-4.75l-1.5,3.5-2.5,2.5L761,337.32l1.25,3.25H759l-.75,1.5-1.75,1.5-1.25,1.75.81,2.06H750l-.25,2.44h-2.25l-1,2.25-2.25,1.75v1.25H743l-.75,1.25,0,2.25h-3.71s1,2.26.67,2.65-1.67-.9-1.67-.9l-1.5,1-1.13,2.16s-1.5-.88-1.37,0a15.75,15.75,0,0,1,0,2.5l-1.12,1.87-2.25,1.5-1.75.63a6.12,6.12,0,0,0-1,1.25,11.36,11.36,0,0,1-1.12,1.62L724.41,374h-1.5s-2.12,2-2.62,2.62a12.23,12.23,0,0,1-2,1.63l-.75,1.5-.88.87h-1.75L713.54,382s-12.88,8.87-16.75,11.25a5.41,5.41,0,0,0-2.88,5s-12.75,20.62-28.5,30.87l-1.62,6-1.5,1.38-1.63.87s-6.75,10.75-10,11.5l-5.87,6.88-1.25.87-2.38,2-1.62,1.75-3,2.25v2.25L630.66,466s-.87,3.75-1.37,5.87a4.43,4.43,0,0,1-2.75,2.88l-3.75,4.08-2.75,1s-17.5,9.75-17.75,29.5l-1.88,3L599.16,514l-1.25,2-1.37,2.25v2.87l-.75,2.63-1.5,2.12-1.75,1.88-1.75,1.87s-1.5,1.63-1.5,2a14.25,14.25,0,0,1-1.88,2.5l-1.75,1.25-.87,2v2.5l-2,1.25-2.88,1.5-2,1.25-3,1.38-2.62.62h-2l-1.88,1.38-2.25.62-1.25,1.5-2.5,2.38L560.79,554l-1.88,3-2.62,1.25-2.38,1.37s.13,3.75,0,4.25-.62,3.5-.62,3.5a13.49,13.49,0,0,0-1.63,2.25c-.12.5-2,1.5-2.12,2s-.75,2-.75,2a14.71,14.71,0,0,1-1.5,1.75c-.38.25-1,.38-1.13.88s-.5.87-1.5,2-2.5,2.62-2.87,3.12a4.23,4.23,0,0,1-1.63.88,1.12,1.12,0,0,0-.62,1.12c.12.75-1.13,2-1.13,2l-1.87,1.25-1.25,1-1,1.38v2.75l-1.5,1.25-1.25,1.12s-.75,1.63-.88,2a4.56,4.56,0,0,1-1,1.13h-2.12L526.16,600h-2.87l-2,2.5-1.5,2.87-1.5,1.13-2.38.62-2.25,1.38h-2.25L509,610.32l-1.25.88-1.63,1.25a11.06,11.06,0,0,1-2.12.87s-2.5-.37-3,0a21.4,21.4,0,0,1-2.75,1.25l-2,1.63-1.25,2L492,622l-2.88,3.37-4,4.5-1,2.25-2.62,1.63-1.63,1.12v1h-6.25l-.62,4s.5,1.88,0,2.38-2.25,2.75-2.25,2.75l-1.5,2.37-.88,1.88-.87,1.62h-2.25L463,654.7l-1.5,1.87-1.38,2.13h-3.87l-.63-.63-5.37-.62v-1.88l-3.38.5V654.2l-2-.38L442,653.7V653h-2.25l-.63-1.88-10.25.13v-1h-1.25v-.88h-1.75v-.62l-5.12-.13V648l-1.5-.38v-1.25l-2.75-.12-.63,1.25-2.87.25v-1.63l-2.75.13-1.38-.38-.75-3.62-4.5-.63-.62-3.25-.75-1V635l-6.75-.13v-3.5h2.12l-.25-.87h1.13l.37-1h1.63l.37-1.5,1.25-2.38.75.13.88-2.88h1.37l.88-2.75.75.38.87-2.38,1.88-2.87,1.62-1.13,1.5-2,2-2a13.74,13.74,0,0,1,2.5-1.37,20.58,20.58,0,0,0,2.63-1.13l.25-4.37,6-1.38s1.37-.25,2.37-6.12l.13-1.63.75-.12,3.25-1.75,5.25-8.38,1.5-2,3.12-4.62,4.63-4s7.62,3.25,8.75-5.75c0,0-.88-2,5.5-3.88,0,0,2.62-.87,3.25-6.25l1.62-1.75,3-2.75,2.13-2,2.37-2.87,1.13-2.38L476,542l1.62-.38,1.38-2.12.37-1.38.25-2.37.63-.25,1.25-1.63,1.12-.62,1.5-1.75.63-1.38,1-.25.62-2,.88-.12s.12-1.38.5-1.25l.37.12.38-3,1.75-.75,1.25-1.25,1.62-2.25.88-1.5.87-2.25,1.5-.87,1.25-3.13,1.63-1.37,1.37-1.88.88-2.62.87-3.63,3-4.25,1.88-1.87,1.12-1.13,3.25-3.62,1.88-1.88,2.37-3.37s1.5-2.75,1.88-2.75a3.21,3.21,0,0,0,1.12-.5l.5-1.63.88-2.29,2.62-.58,2-2.75,1.5-2.38,1-2.5,1.38-1.25.87-3.25,1.13-.37,1.87-1.88,2.25-3L537,458.2l1.5-2.25.87-.75h1.75l2-.13,2.63-3,1.75-2.75,1.12-.62,3.25-12.88.5-6.62,2.5-2.75,2.75-3.75,2.75-.88h.75l2-1.62,4.13-2.5,2.25-1.38,1.87-1.37,2.75-1.75,2.25-1.25,2.5-2.25,1-1.38,1.75-2.25,3.88-3,3-4.62s1.5-4,2-4,1.12-4,1.12-4l.5-3.88.25-3.12,1.5-4.63,11.88-14.62,15.37-23,16.13-17.5s11.37-9.88,11.75-9.88S674.16,292,674.16,292l29.38-21.5,5.37-8,.13-3.63,1.37-.5,1.13-1.75,5.62-1,.38-3h1.12l.13-1.62.87-.25.25-1.13,3.13-.5.12-2.62,1.38-.88.62-1.87,1.38-.25.37-3.5h1V236.2l.88-.63,1.12-1.5,1.25-.12Z"/><path class="cls-3" d="M507.7,491.82v-3.17l1.84-2,2.66-2.5,3.34-3.16,1-3.17,2.16-2.17,1.67-2.5,2.67-2.5,2.5-3.33,1.5-3.17,2-3.5h3.5l1.33-5.16,1.83-1.84h1.17l1.83-1,2-1.16,3-2.34,2.17-2.66,1-5.5,1.17-5v-7.5l1.66-2.34,3.5-3.5s3.5-1.5,4-1.66,2.84-.84,2.84-.84L561.2,418l2.67-1.5h3l1.83-1.34.84-2.5v-1.33l2.33-1.33,1.83-1.84a15.42,15.42,0,0,1,2-.83c.67-.17,2-6.67,2-6.67l9.34-8.83v-9l5-10.17-.84-7.33h-2.33l-.83-2.17h-1l-.84-1h-1.33l-.83-1.83h-.73l-.77-1.5s-1.5-.5-2,0-1.5-2.67-1.5-2.67h-3.17L576,355H572.2l-.33-1.67H571l-.67-4-2.17-1,.34-5,.16-3.67L566.2,337l-2.33-1.84-2.17-1h-2l-.5,2.34-2.33,2.5-1.5,1.33-2.33-.5-1.17-1.17h-2l-1.67-.16-1.16-.17-.34-1.67H545l-1.17,1.17-1,1.5-1,.5L540.2,339v-1.34l-2.33-.33-1,1.17-2.33-.67v-2.5l-4.84.17-.66-3.17H526.7l-4.5,4.17-2.5,3.33-3.5,2.5-3.83,3.33-3.67,5.17-1,4.67-1.33,3.33-4,3.17-3,2.33L496.7,367a12.36,12.36,0,0,1-1.16,1.5c-.5.5-2.67,1.16-2.5,1.66s-.84,3.67-.84,4.17A6.14,6.14,0,0,1,490,377a14.83,14.83,0,0,1-2.84,1l-2.5.66s-3.16,2-3.16,2.5-2.5,3.5-2.5,3.5l-2.17,2.84-2.5,1.83v3.17l-4.5.66L467.2,396l-1,4-5,5L456,412.07l-6.17,9.25-5.33,9.17-4.17,8L436.2,445l-7.83.5-.83,2.33s-1.84.5-1.67,1.17a3,3,0,0,1,0,1.33l-6,4s-1.67,2-1.67,2.5.84,1.17,0,2.33a15.6,15.6,0,0,1-1.5,1.84L413,465.15l-2.17,3.34-2,2.33-2.67.83-.83,2.17-1.67,2.33-2.16,1.5V481l-3.5,4-2.5,3.66-1.17,4.17-.83,1.67h-1.17l-2.83,2.16L385.7,500a11.33,11.33,0,0,0-1.5,2.33,6.69,6.69,0,0,1-1.16,1.83l-2.17,1.5-4.33,2.5s-4.5,2.67-4.67,3.17a34.93,34.93,0,0,1-2.5,3.33s-1.5,3.17-1.33,3.67-1.34,2.83-1.34,2.83l-1.66,1v3.34l-1.84,1.66-5.5,6-2.33,3.17-1.67,1.17h-1.83l-1.33,3.33h-1.67l-2.67.67-1,3.83,3.84,1.5-1.34,4.83,5.5,1.17.34,2.17h.83l1.5,5.66L359,562l-.17,2.33,1.5,1.33-.67,1.84.67,5.33,2.17,2.33-1,2.84-1.5,2.66.5,2.5,3,.84.66,3.16h2.17l2.67,4.17a5.33,5.33,0,0,0,5.16-1.17l-.16,5.34,1,1,.83.83.33,3.33,3.17,1,.17,4.5L381,608h5l1.16,3.16,1.5,1.5h4l5.17-5.33,7.33-1.83,7.17-4.84,7.5-5.66,6-6,7.5-4.67,3-3L438,577l1.66-3.5,4.17.5,5-3.34,2.17-1,2.5-1.66,1.16-4,3-3.5,2.34.16.33-4.66,2.17-1.67,3.5-4.5v-4.5l4.33-2.33,3.33-4,2.67-4.17,2.17-2L480.2,528l2-4.34,4.34-2.33s2-1.83,2.5-1.67.66-3.5.66-3.5l2.67-3.33,2.33-2.33,2.84-4.17.83-4.83,3.17-2.84,3.83-4Z"/><path class="cls-4" d="M431.16,294.45l2.88-3.38h2.25l.5,1.69,2,1.06v1.25h11.12v2.38l2.38.87s.5-1.12,1-1a17.27,17.27,0,0,0,2.62,0h1.38l1.87-.75,1.25-1.25,2.25.13,1.25,2.87,2.5,1s-.87,1.38,0,1.75,4.25,0,4.25,0l.63,2.5,6.37,1.13v2.62s.88.25.88.88v3.25l-.75,1.37.75,1.88,1.62,1.62h3.25l-.62-2.37,3.12-.38,1.5,3.75h4.13v3.13l-1.5,1.37a3.22,3.22,0,0,0-.38,1.5c.13.5,1.88,1,1.88,1h4v4.13l-1.88,1.5,1.88.87h2.12a2.2,2.2,0,0,1,1.25,1.5,20.57,20.57,0,0,0,.63,2.63c.12.5,0,3.75,0,3.75l4,5,.75,6.25-.63,7-1.25,1-1.87,1.25-2.25.87-.25,2.75s-1.75.88-1.88,1.25a25.17,25.17,0,0,1-2.37,2.63l-.75.62s-.5-1.12-.63,0a22,22,0,0,1-.62,2.88L490,371.45l-2.38,1.25-2.75,1.12-2.37,1.38a9.82,9.82,0,0,0-1.88,2c-.25.62-2.5,1.37-2.5,1.87s-2.37,1.5-2.37,1.5l-3.25,4.25-.75,2.13-.38,2.12-.87,1.25h-1.92l-2.08,1.25-.13,2.25-.25,1.5-1,2.13-1.37,1-1.38,1.12-1.75,2.88L459,403.82l-1.25,2.25-1.25,2.5-3,2.2L451.16,415,449,418l-1.88,1.5s-2.25,1.75-2.25,2.12-1.5,2.5-1.37,3-1.38.63-1.5,1-2,.63-2,1-2.25,2.38-2.25,2.38l-1.63,2.5a12.74,12.74,0,0,1-.62,2.25c-.25.37-1.75,1.87-1.75,1.87l-2.63,1.88-1,1.12-1,3.25L424.54,443v.77l-1.88,2.48a11.52,11.52,0,0,0-1.25,2.5c0,.5-2.62,1.37-2.62,1.75s-1.88,1.87-1.88,2.5-3,4.62-3,4.62l-1.12,2.88-2.13,2.37L406.79,465l-2.38.87-.87,4.88-.75,1.79-2.13,2.71L397.54,479l-1.13,1.75-.87,2-1.5,1.75h-1.75v2.87l-1.5.88h-1.13l-.62,3.25-1.75,1.5-2,1.5-2.63,2.25s-3.12,2.5-3,2.87-2.5,2.13-2.5,2.13l-2.37,1.12-2.13,1.88s-1.62,1.12-1.62,1.5a16.87,16.87,0,0,1-1.38,2.62l-2.75,1.75-1.62,1.63-1,2.12s.25,1.5,0,1.88.5,3.37,0,4a48.94,48.94,0,0,0-2.25,4.87l-1.38.88H357l-1.5,6.5-1.88,1.87h-4.25v4.13h-5l-2.25,2.12h-2.62v-2.75l-3.88-.62v-.75l-3.25-.13v-1.75l-3-.12v-1.38l-.87-.37v-4l-4.5-.5v-3.5l-5.63-.75V516.7l-3-.5-.87-3.5-3.63-.5v-3.88l-3.5-.12-2.87-.38V503l-3.88-1-1.5-4-4.25.12v-2.75l-2.75-.25V497l-3-.5v-1.63l-2.37-1.75V491l2.25-.38-.5-1-5.38-.37-1.37-2.88v-9.5l2.5-2.12.62-3.25,1.63-3,1.12-4.5.88-2.75,2.75-3.88a6.5,6.5,0,0,1,.87-2c.88-1.62.25-2.25.25-2.25l3.38-17.5L297,430.7l4-5.88,3.75-8.37,4.62-3.25,3.63-6.13,3.25-2.12,1.87-2.38,2.13-3.62,2.25-4,2.5-2.88a24.29,24.29,0,0,1,2.5-3c.37-.12,13-13.37,25.5-19.87,0,0,21-15.13,24.25-22.88,0,0,4.62-3.37,8.25-6.62l6.87-12.38s13.88-10.87,29-24.75C421.41,302.57,430.79,296.57,431.16,294.45Z"/><path class="cls-5" d="M860.09,301.46c-4.16-12.84-34.16-32.34-34.16-32.34C821.59,266,803.76,259,803.76,259l-8.17-.5a17.48,17.48,0,0,1-10.33-4.17H742.43c-2.5,2.17-9.34,4.33-9.34,4.33h-3.66l-1.17,1.5h-6.83l-1.17,1h-2.17l-1.33,1.5H701.09l-2,4.5-2.83,2.17L692.59,272l-4.5,3-3.83,2.83-3.33,3-3,1.67-2.84,1.83-3.33,2.83-4.5,3.67-3.83,2.67-3.67,3.33-4.83,4.5-6,5-8,7.17-5.17,4.83-5,5.5-5.33,6L620.76,336l-6.83,7.83-4.5,4-4.5,6.83-4.5,8.17-3.84,6.33c-4.66,5.5-7.66,2.67-7.66,2.67-6.67-3.84-17.5-4.5-17.5-4.5-23.84-20.34-50.17-21.83-50.17-21.83l-5.5-2.34-3.67-2-5-1.16-10-2.5-8.33-4.67-6.17-4-4.5-1L467.93,327l-15.5-.67-22.34.5-18.33.17c-31.17-1.67-54.5,11.33-60.83,15l-.54.31c-7.42,4.48-37.63,25.52-37.63,25.52-25,22.67-25,53.33-25,53.33-.5,21.84,8.17,42.5,8.17,42.5l10.33,18.84,10.5,12.83,16,18.5,18.83,18.83L364.43,547l14.66,13.66,12,9.67,17.17,13.33L418.59,590l3.5,1,4.67.66,5,3.17,20.83,14,13.84,9.5,12.66,8,9.84,6.17,18.5,12,12.66,8.16,10,6.84,14,7.66.84.34,14.5,7.83,6.66,4.67,6.84,5.83c8.66,7.5,12.16,5.5,12.16,5.5l2.5-3.5.84-5.5,1.5-5.33,1.5-6.84,2.83-6.33,2.83-6.33,2-5,2.34-6,5-7.5,6.5-12.5,8.33-12.34,1-2.83s6-5.33,6-5.83,2.83-3,3.17-3.67,2.16-3.33,2.16-3.83,2.84-4,2.84-4l3.83-3.34,2.67-3.66,4-3.5,4.5-4,2.83-2.5,4-3.67,3.83-3.83,1.5-3,3.34-4.17a38.25,38.25,0,0,0,2.16-4.5c0-.5,1.84-2.33,1.84-2.33l5.16-3.67,2.5-2.17,4.67-4.5,4.17-3.83,6.16-5.83,6.67-6.34,4.17-4.16,4.66-4.67,4.67-4.33,5.67-6.34,4.33-4,4.17-4.5,6.66-6,4.84-5.5,3.16-1.83,2.84-2.83,2.5-2.67,3.5-3.67,4.5-4,3-2.33,2.66-1,2-2.17,6.5-8.33,3.17-3.17,3.5-3.83h1.83l2.34-1.5,3.33-3.67,3.5-3,2.83-2.83,3.17-3.33,1-2.34,4.33-3,5.34-5.16,6.5-7.34,4.33-4.33,3.83-2.67c5-3.83,9.67-12.33,9.67-12.33a6.36,6.36,0,0,1,3-4.33c4.5-2.84,6.67-9.34,6.67-9.34,23.83-30.83,25.66-43,25.66-43C869.59,322.79,860.09,301.46,860.09,301.46Zm-7.66,44.83-.84,6.17-3.16,3.66-2.5,3s-3.67,3.5-3.84,4.34a28.09,28.09,0,0,1-2.33,4.16s-2.5,2.84-2.33,3.84-.17,2.49,0,3.16-2.5,2.5-2.5,3a16.34,16.34,0,0,1-1.17,2.84l-2.17,5-2.66,3-1.84,2.5s-1.33,2.33-1.16,2.83a4.53,4.53,0,0,1-.34,1.83h-3.5l-.66,3-2.17,2.67s-2.83,2.5-2.83,3-3.5,3.5-3.5,4-1.67,2.28-1.67,2.28l-3.17,1.22s-1.16.83-1,1.33-1.33,2.17-1.33,2.17h-2.33l-2.17,3.83-1.83,2.17s-3,.17-3.17.67a18.8,18.8,0,0,1-2,2.5l-2,2s-3,1.33-3,1.83a27.73,27.73,0,0,1-1.83,3.83s-2.5,1-2.67,2-2.67,2.5-2.67,3.34-1.5,1-1.66,2.16-1.84,1.84-2.17,2.5-3.33,2.67-3.33,3.34-1.67.66-1.67.66l-2.5.84a27.33,27.33,0,0,0-1.5,3.66,16.94,16.94,0,0,1-.67,2.5l-5.16,2.5a51.72,51.72,0,0,0-7.34,9.67L754.76,467l-4,.83-2,2.5-1.17,3.33-1.5,1.67h-1.66l-1.34,2.5-.66,1.83-1.34,1-1.16.84-2,2.66-4.34.84h-.66l-1.5,1.16.16,2.5-2.5,1.34-1,1h-2.5l-1.66,1.66-.84,1.34-1.66,2.16h-1.17l-1.5,2-.17,2-3.83,3.17-2.5,1.83v1l-1.33,1.34-.34,2-.66,2.16h-1.67l-1,2.17-1.33.83h-1.5l-.67,3.17-2.5.67-1.83,1.83-2.17,1.17-1.67,3-2.16,2.16h-1.67l-2.17,2.17-3.16,2.5-.5,1.67-.84,2.16-2.83,1.34-2.17,2.83s-2-1.67-2.33,0a5.66,5.66,0,0,1-1.67,2.83h-4l-.5,2-1,2.67-1.66,2.33h-1.34l-2.16,2.17s-2-.84-2,0-1.5,3-1.5,3l-2.5.83h-2.34l-.66,3.34-1,2s-2.17,1.16-2,1.66-2.67,2.84-2.67,2.84l-.5,2.66-1.83,2.5-5.17,4.67-5,3.33-3.67,3.67-.66,2.17-1.5,2h-2l-.17,2.83h-3.17l-.66,2.67h-2l-.84,2.66-2.5.84-1.5,3.33-3.5,4.33-2.66,2.84-1.84,1.83-.5,3.5-.33,2.67-3.5,3.66-2.5,3-1.83,3.5L601.09,627s-2.83,3.66-3,4.16-3,2.5-3.16,3.17a22.16,22.16,0,0,1-2.34,3.33L590.76,641l-1.67,2.16v4.34l-2,5.5s-3.5,4.16-3.33,4.66-3,4.34-3,4.34l-2,6.66v6h-2l-4.18-3.83-3-.83-3.83-3.5-4-2.84-3.5-1.33L553.43,660l-4.84-2-4.83-2.34s-40.5-24.16-52.83-35.66c0,0-19.67-12.51-26.67-16.67l-3.5-2.67-5.5-3.16a41.94,41.94,0,0,0-3.83-3.17c-.5-.17-5.5-3.5-5.5-3.5l-6-5-4.5-2.17-3-3.83-2.17-1.67-2.67-1.5-1.66-1.33-2.5-.67-2-2-3.84-3.16-4.5-2.67-2.66-1.33-3.17-2-1.67-1.5-3.33-2-7.67-6.67-4.16-5.17-5.5-4.83-1.5-1.83-3.5-2.34-4.5-4.16-4-2.34-2.5-1.16-3-2-5.67-4.67-5-4.5L350.43,515l-7.34-6-8-7.67-7-5.67-8.33-8.83s-7.33-12.83-12.17-19.67c0,0-14.47-21.38-12-54,0-.22,0-.44,0-.65,2.67-33,39.17-46.17,44.67-55.84l5-4.16,4.67-.84,3.83-2,5.83-3,7.5-1.83,10.67-2.5,5.5-2.17,5.17-.5,9.33-2,5.5-1.66,6.33-.5,10.17-.34,7.67-.66,4.66-.34h16.67l13.17-.66,9.33,1.16,8.83,3,4.5,3,5.5,2.84,10.5,4.83,7.5,4.33,5,2.84,5.84,3.5,9.33,6.16,7,3.17,6.17,3.5,8.16,4.67,11.34,2,9.16,2.5,6.68,2.66,6.49.34,4.67-.67,4,.33c.5.34,3.66-2.66,3.66-2.66l2-3.17,3.17-3,4.17-2.33,2.33-2.34,1.83-2.83,1.5-2.67,1.5-2.5,2.17-1.5.67-2.33.83-2.83,1.17-3,2.83-5.17,4-5.17,2.67-3.16h4l2.33-4.34,3.17-1,2.33-1.5,2-1.16,2.33-1.34.84-2.33,1.33-2.67,2-2.16,2.17-1.84v-1.33l2.33-1.5h1.33l1-2.33,1.34-1.5,1.16-1.67V311l4.17-2.17,3.33-3,2.67-2.33h5l.83-3.5,3-1.67s6-4.33,8.17-7.83.67,0,.67,0,11.66-6.84,11.66-10.84l2.17-2.33h8.67l6.83-5.83,4-1.5h12.67l4.5-3.34,5.5-2.5,2.66-1.5h28.17l5.83.67,8.5,1s4.5,1.83,5.34,2,4.5,1.83,4.5,1.83,4.33,1.84,5.16,2.17,5,2.17,5,2.17l5.84,1.83,6.5,1.5,3.33,4,3.5.83,4.67,1.5,3.83,2.17s2.83,2.67,3.33,3a12.76,12.76,0,0,1,1.67,2.5s1.67,4.67,2,5.17,3.84,3.83,4.5,4,2.17,3,2.67,3.83,2,4,2,4l.83,3,1.67,18.33,1,9.67Z"/><path class="cls-6" d="M173,161.69c-2.25,0-3.9-1.22-5-3.65a4,4,0,0,0-1.5-2.08,9.21,9.21,0,0,0-2.95-.27q-4.71,0-10.88,7.53-8.64,10.53-8.63,19.71a10.27,10.27,0,0,0,2.72,7.18,8.55,8.55,0,0,0,6.55,3,16.13,16.13,0,0,0,7.51-2c.9-.48,2.79-1.74,5.68-3.76q2.91-2,4.41-2a5,5,0,0,1,3.81,1.69,5.09,5.09,0,0,1-.48,7.57q-10.29,8.91-20.93,8.91a18.56,18.56,0,0,1-14.21-6.3,20.52,20.52,0,0,1-5.53-14.29q0-12.87,10.95-26.28,9.31-11.37,19-11.37,1.64,0,3,.12a16.84,16.84,0,0,1,2.33.34,5.41,5.41,0,0,1,4-1.65q3.81,0,4.71,4.5a39.68,39.68,0,0,1,.63,7.53,6,6,0,0,1-1.08,3.49A4.69,4.69,0,0,1,173,161.69Z"/><path class="cls-5" d="M194.42,197q0,7.31-5.15,7.3a5,5,0,0,1-3.7-1.46,5.06,5.06,0,0,1-1.46-3.76V145.9a4.69,4.69,0,0,1,1.57-3.65,5.42,5.42,0,0,1,3.7-1.31,5,5,0,0,1,3.62,1.37,4.71,4.71,0,0,1,1.42,3.59Z"/><path class="cls-5" d="M236.63,180.39q0,2.58,0,7.76t0,7.76c0,.54,0,1.34.13,2.41s.13,1.86.13,2.4a4.62,4.62,0,0,1-1.51,3.55,5.29,5.29,0,0,1-3.72,1.4,4.72,4.72,0,0,1-4.52-2.88,28,28,0,0,1-9.91,1.81,16.35,16.35,0,0,1-8.93-2.3,10.61,10.61,0,0,1-4.86-7.68,114.64,114.64,0,0,1-1.46-17.08,66,66,0,0,1,1.12-11.34q.75-4.32,5.05-4.32a5.3,5.3,0,0,1,3.7,1.39,4.58,4.58,0,0,1,1.53,3.53,39.46,39.46,0,0,1-.54,5.26,39.79,39.79,0,0,0-.54,5.46c0,3.58.11,6.72.35,9.4a39.31,39.31,0,0,0,1.07,6.66,12,12,0,0,0,1.81.65,6.84,6.84,0,0,0,1.7.22,38.62,38.62,0,0,0,9.12-1.22q0-3,0-6.73c0-3-.07-5.15-.07-6.45a113.08,113.08,0,0,1,.71-13.6c.37-3,2.07-4.57,5.08-4.57a5.43,5.43,0,0,1,3.78,1.42,4.33,4.33,0,0,1,1.46,3.57Q236.62,181.51,236.63,180.39Z"/><path class="cls-5" d="M261.44,204.21a26.66,26.66,0,0,1-9.94-1.88,4.5,4.5,0,0,1-3.36,1.42,4.82,4.82,0,0,1-3.46-1.38,4.6,4.6,0,0,1-1.44-3.46c0-.61,0-1.56.11-2.82s.12-2.21.12-2.83V149.74a9.93,9.93,0,0,1,1.19-4.92,4.66,4.66,0,0,1,4.26-2.73q4,0,4,4.46a14.33,14.33,0,0,1-.13,1.59,14.46,14.46,0,0,0-.13,1.6v14.71a26.36,26.36,0,0,1,5.31-2.36,16.32,16.32,0,0,1,4.9-.79,17.52,17.52,0,0,1,14.2,6.57,22.77,22.77,0,0,1,5.05,14.91,21.11,21.11,0,0,1-5.87,15.09A19.53,19.53,0,0,1,261.44,204.21Zm1.43-33.07a11.06,11.06,0,0,0-4.49,1.15,33.58,33.58,0,0,0-5.72,3.46q0,3.65,0,16.32a22.45,22.45,0,0,0,8.78,2.27,10.24,10.24,0,0,0,7.82-3.29,11.63,11.63,0,0,0,3.06-8.27,13.16,13.16,0,0,0-2.5-8.26A8.34,8.34,0,0,0,262.87,171.14Z"/><path class="cls-6" d="M360.57,203.06a5.27,5.27,0,0,1-3.7-1.61A62.52,62.52,0,0,0,332,186.31q.4,11.17.41,12.41a5.09,5.09,0,0,1-1.5,3.71,5.37,5.37,0,0,1-7.47,0,5.09,5.09,0,0,1-1.5-3.71q0-2.88.08-8.63c.05-3.82.07-6.7.07-8.62l.08-31a7.52,7.52,0,0,1,1.46-4.53,5.54,5.54,0,0,1,5.27-2.35c6.05.46,9.15.71,9.3.73a26.15,26.15,0,0,1,8.9,2.58q16,8.25,16,20.47a13.2,13.2,0,0,1-3.34,8.89q-3.36,3.87-10,6.52,9.9,5.68,14.91,11.6a5.09,5.09,0,0,1,1.31,3.42,5,5,0,0,1-1.57,3.7A5.12,5.12,0,0,1,360.57,203.06Zm-24-48.33c-.2,0-1.65-.13-4.37-.3v20.39c.62,0,1.17,0,1.64,0q9.17,0,13.57-2.34a13.77,13.77,0,0,0,3.5-2.65c1.06-1.1,1.59-1.93,1.59-2.5q0-4.31-5.31-8.3A21.28,21.28,0,0,0,336.61,154.73Z"/><path class="cls-5" d="M403.56,204.71q-1.72,0-5.46-3.42a49,49,0,0,1-6.05,2.56,14.84,14.84,0,0,1-4.45.86q-9,0-13.51-5t-4.51-14.83a21.5,21.5,0,0,1,6.66-15.85,21.83,21.83,0,0,1,15.92-6.59,20.87,20.87,0,0,1,8.22,2.06c3.76,1.65,5.65,3.56,5.65,5.74a3.66,3.66,0,0,1-.86,2.4,24.9,24.9,0,0,0-.58,3.82c-.14,1.53-.21,3.33-.21,5.38q0,7.26,1,10.46c.08.23.65,1.55,1.72,4a20.85,20.85,0,0,1,1.46,3.72,4.27,4.27,0,0,1-1.52,3.35A5.11,5.11,0,0,1,403.56,204.71Zm-9.27-25.93a25.17,25.17,0,0,1,.17-2.82c.11-1.07.28-2.25.5-3.56a7.87,7.87,0,0,0-1.33-.55,3.36,3.36,0,0,0-1-.18,11.79,11.79,0,0,0-8.89,4.1,13.45,13.45,0,0,0-3.81,9.46c0,3.44.59,6,1.79,7.75a6.13,6.13,0,0,0,5.38,2.59,12.12,12.12,0,0,0,4.39-.79,13.43,13.43,0,0,0,3.91-2.32A123,123,0,0,1,394.29,178.78Z"/><path class="cls-5" d="M425.54,184.58q0,2.19.13,7t.13,7a4.94,4.94,0,0,1-1.46,3.67,5.47,5.47,0,0,1-7.4,0,4.94,4.94,0,0,1-1.46-3.67q0-2.19-.13-7t-.13-7c0-2.28.13-5.13.37-8.57s.38-6.28.38-8.56a4.94,4.94,0,0,1,1.46-3.67,5.47,5.47,0,0,1,7.4,0,4.94,4.94,0,0,1,1.46,3.67q0,3.42-.38,8.56C425.66,179.45,425.54,182.3,425.54,184.58Zm-3.18-28.16a5.87,5.87,0,0,1-4.15-1.65,5.53,5.53,0,0,1,0-8.07,5.87,5.87,0,0,1,4.15-1.65,5.79,5.79,0,0,1,4.13,1.65,5.55,5.55,0,0,1,0,8.07A5.79,5.79,0,0,1,422.36,156.42Z"/><path class="cls-5" d="M464.75,205.33c-3.07,0-4.77-1.55-5.12-4.65q-.53-4-1.05-8a61.35,61.35,0,0,1-.56-8c0-.66,0-1.8.13-3.42s.13-2.75.13-3.41c0-.18,0-.64.08-1.37s.07-1.32.07-1.78c0-2.13-.5-3.19-1.5-3.19q-3.19,0-6.28,4.23a32.32,32.32,0,0,0-4.82,10.72c0,.87-.15,2-.31,3.47a29.32,29.32,0,0,0-.21,3.46q0,1.1-.24,3.33c-.16,1.48-.24,2.59-.24,3.32a5.06,5.06,0,0,1-5.2,5.2,5,5,0,0,1-3.7-1.47,5,5,0,0,1-1.46-3.7c0-.73-.07-1.83-.22-3.3s-.23-2.58-.23-3.31c0-2.5.18-6,.53-10.44s.52-8,.52-10.45c0-.78,0-1.95-.13-3.5s-.13-2.71-.13-3.46a4.75,4.75,0,0,1,1.51-3.62,5.19,5.19,0,0,1,3.72-1.43c3.26,0,5,2,5.23,6l0,.42q5.46-5.64,11.51-5.64,7.06,0,9.76,6.07,1.8,4.07,1.79,12.17v2.73c0,1.18,0,2,0,2.5a47.51,47.51,0,0,0,.8,7.72,47.3,47.3,0,0,1,.8,7.68,4.68,4.68,0,0,1-1.49,3.57A5.17,5.17,0,0,1,464.75,205.33Z"/><path class="cls-5" d="M493.12,204.21a26.62,26.62,0,0,1-9.94-1.88,4.53,4.53,0,0,1-3.37,1.42,4.83,4.83,0,0,1-3.46-1.38,4.6,4.6,0,0,1-1.44-3.46c0-.61,0-1.56.12-2.82s.11-2.21.11-2.83V149.74a9.93,9.93,0,0,1,1.2-4.92,4.64,4.64,0,0,1,4.26-2.73c2.66,0,4,1.49,4,4.46,0,.33-.05.86-.13,1.59a14.46,14.46,0,0,0-.13,1.6v14.71a26.54,26.54,0,0,1,5.3-2.36,16.42,16.42,0,0,1,4.9-.79,17.52,17.52,0,0,1,14.2,6.57,22.72,22.72,0,0,1,5,14.91,21.11,21.11,0,0,1-5.87,15.09A19.52,19.52,0,0,1,493.12,204.21Zm1.42-33.07a11.1,11.1,0,0,0-4.49,1.15,33.54,33.54,0,0,0-5.71,3.46q0,3.65,0,16.32a22.45,22.45,0,0,0,8.78,2.27,10.22,10.22,0,0,0,7.81-3.29,11.64,11.64,0,0,0,3.07-8.27,13.16,13.16,0,0,0-2.51-8.26A8.33,8.33,0,0,0,494.54,171.14Z"/><path class="cls-5" d="M536.18,204.87A16.4,16.4,0,0,1,524.29,200q-5.46-5.34-5.72-14.26a24,24,0,0,1,4.53-15.13q5.67-7.84,15.81-7.84a13.89,13.89,0,0,1,11.88,6.15q4,5.53,4,13.71a25,25,0,0,1-4.64,15.22A16.47,16.47,0,0,1,536.18,204.87Zm2.24-32a8.07,8.07,0,0,0-7.25,4.31,16,16,0,0,0-2.24,8.52c0,3.08.84,5.43,2.54,7.07a6.53,6.53,0,0,0,4.71,2,7.91,7.91,0,0,0,5.64-2.26,10.22,10.22,0,0,0,2.92-7.19Q545.22,173,538.42,172.9Z"/><path class="cls-5" d="M608.84,168.75q-3.92,15.06-7.88,27.36a27.23,27.23,0,0,1-3.67,7.1,5.47,5.47,0,0,1-4.78,2.5q-4.71-.08-7.4-9.33a118.25,118.25,0,0,1-2.39-13.18c-.53,1.13-.85,1.88-1,2.26q-1.93,4.77-5.68,14.79a5.75,5.75,0,0,1-1.68,2.58,5.4,5.4,0,0,1-4.67,2.69c-1.17,0-2.41-1-3.7-3.23a29.91,29.91,0,0,1-3.33-8.6q-1.15-4.77-3.59-20.75a38.23,38.23,0,0,1-.52-5.41,4.57,4.57,0,0,1,1.55-3.52,5.36,5.36,0,0,1,3.72-1.4q4,0,5,4.11a47.28,47.28,0,0,1,.82,5.3c.3,3,.49,4.8.56,5.34.33,2,.83,5.26,1.5,9.8q2.76-7.8,6.35-19.4c1-3.33,2.94-5,5.76-5s4.58,1.86,5.46,5.57q.93,3.91,2,10.18,1.53,9.11,1.87,10.84.33-1.2,5.87-23.36c.54-2.2,2.1-3.31,4.67-3.31a5.51,5.51,0,0,1,3.75,1.43,4.47,4.47,0,0,1,1.63,3.53A4.54,4.54,0,0,1,608.84,168.75Z"/><path class="cls-5" d="M667.64,150.7l-3.36,3.38q-3.9,4.38-6.17,12.64a54,54,0,0,0-2,14.4A55.14,55.14,0,0,0,658,195.91q2.46,9,7.7,12.68,4.71,3.38,4.71,6a4.25,4.25,0,0,1-1.48,3.27,4.8,4.8,0,0,1-3.34,1.34,7.31,7.31,0,0,1-3.44-1q-16.68-9.18-16.67-37.88a56.06,56.06,0,0,1,4.18-20.82q4.75-11.88,12.53-17.25a6.3,6.3,0,0,1,3.28-1.31,4.66,4.66,0,0,1,3.5,1.52,4.91,4.91,0,0,1,1.44,3.48Q670.37,147.82,667.64,150.7Z"/><path class="cls-6" d="M692.16,204.94q-9.49,0-14.95-4.34-4.61-3.61-4.6-8.34a5.79,5.79,0,0,1,1.42-4,5,5,0,0,1,3.93-1.59c2.24,0,3.88,1.17,4.93,3.53q2.13,4.73,9.64,4.72A28.37,28.37,0,0,0,705,192q6.24-3,6.24-6.49,0-4.83-3.88-6.38-2.77-1.11-11.1-1.3a29.21,29.21,0,0,1-11.59-2.5q-6.92-3.18-6.81-9.14.12-7.5,7.78-13.73a26.1,26.1,0,0,1,16.89-6.25,30.72,30.72,0,0,1,9,1.73q6.69,2.16,6.69,5a5.22,5.22,0,0,1-1.34,3.53,4.88,4.88,0,0,1-3.85,1.73,27.12,27.12,0,0,1-5.26-.77,27.15,27.15,0,0,0-5.29-.77,19.27,19.27,0,0,0-9.15,2.39q-4.49,2.37-4.49,5.18a2.81,2.81,0,0,0,1.37,2.4,9.69,9.69,0,0,0,4.09,1.33l9.53.54q8.29.64,13.12,4.8,5.31,4.61,5.31,12.75,0,9.92-11,15A45,45,0,0,1,692.16,204.94Z"/><path class="cls-5" d="M739.41,184.58q0,2.19.13,7t.13,7a4.94,4.94,0,0,1-1.46,3.67,5.47,5.47,0,0,1-7.4,0,4.94,4.94,0,0,1-1.46-3.67q0-2.19-.13-7t-.13-7c0-2.28.13-5.13.37-8.57s.38-6.28.38-8.56a4.9,4.9,0,0,1,1.46-3.67,5.47,5.47,0,0,1,7.4,0,4.94,4.94,0,0,1,1.46,3.67q0,3.42-.38,8.56C739.53,179.45,739.41,182.3,739.41,184.58Zm-3.18-28.16a5.87,5.87,0,0,1-4.15-1.65,5.51,5.51,0,0,1,0-8.07,5.87,5.87,0,0,1,4.15-1.65,5.79,5.79,0,0,1,4.13,1.65,5.55,5.55,0,0,1,0,8.07A5.79,5.79,0,0,1,736.23,156.42Z"/><path class="cls-5" d="M778.62,205.33c-3.07,0-4.77-1.55-5.12-4.65q-.53-4-1-8a61.35,61.35,0,0,1-.56-8c0-.66,0-1.8.13-3.42s.13-2.75.13-3.41c0-.18,0-.64.08-1.37s.07-1.32.07-1.78c0-2.13-.5-3.19-1.5-3.19q-3.19,0-6.28,4.23a32.32,32.32,0,0,0-4.82,10.72c0,.87-.15,2-.31,3.47a29.32,29.32,0,0,0-.21,3.46q0,1.1-.24,3.33c-.16,1.48-.25,2.59-.25,3.32a5,5,0,0,1-5.19,5.2,5,5,0,0,1-3.7-1.47,5,5,0,0,1-1.46-3.7c0-.73-.07-1.83-.22-3.3s-.23-2.58-.23-3.31c0-2.5.18-6,.53-10.44s.52-8,.52-10.45c0-.78,0-1.95-.13-3.5s-.13-2.71-.13-3.46a4.75,4.75,0,0,1,1.51-3.62,5.19,5.19,0,0,1,3.72-1.43c3.26,0,5,2,5.23,6l0,.42q5.46-5.64,11.51-5.64,7.06,0,9.76,6.07,1.8,4.07,1.79,12.17v2.73c0,1.18,0,2,0,2.5a47.51,47.51,0,0,0,.8,7.72,48.46,48.46,0,0,1,.8,7.68,4.72,4.72,0,0,1-1.49,3.57A5.17,5.17,0,0,1,778.62,205.33Z"/><path class="cls-5" d="M823.88,179.7A135.73,135.73,0,0,0,822,198.76q-.36,12.41-4,18-4.9,7.5-17.35,7.49-14.53,0-14.54-5.91a4.5,4.5,0,0,1,4.75-4.73,25.34,25.34,0,0,1,4.82.66,28.15,28.15,0,0,0,5.57.65q5.58,0,8.23-3.5t3-10.87a12.88,12.88,0,0,1-4.3,3,13.59,13.59,0,0,1-5.24,1,15.8,15.8,0,0,1-12.09-5,17.89,17.89,0,0,1-4.65-12.73q0-10.46,6.2-16.9,6.43-6.69,17.38-6.69a18.72,18.72,0,0,1,6.06.88,9.44,9.44,0,0,1,4.11,2.69q4.76.58,4.75,5.77A43.71,43.71,0,0,1,823.88,179.7ZM809.38,172q-6.32,0-9.83,4.26a15.54,15.54,0,0,0-3.14,10.07q0,4.58,1.68,6.88a5.86,5.86,0,0,0,5,2.3q3.06,0,6.17-3.65a13.18,13.18,0,0,0,3.32-6.84c.48-2.46,1-6.28,1.65-11.48a11.23,11.23,0,0,0-2.51-1.16A8.21,8.21,0,0,0,809.38,172Z"/><path class="cls-5" d="M862.12,204.71q-1.71,0-5.45-3.42a49.67,49.67,0,0,1-6.06,2.56,14.79,14.79,0,0,1-4.45.86q-9,0-13.51-5t-4.51-14.83a21.5,21.5,0,0,1,6.66-15.85,21.83,21.83,0,0,1,15.92-6.59,21,21,0,0,1,8.23,2.06q5.64,2.47,5.64,5.74a3.66,3.66,0,0,1-.86,2.4,26.21,26.21,0,0,0-.58,3.82c-.14,1.53-.21,3.33-.21,5.38q0,7.26,1,10.46c.08.23.65,1.55,1.72,4a20,20,0,0,1,1.46,3.72,4.26,4.26,0,0,1-1.51,3.35A5.14,5.14,0,0,1,862.12,204.71Zm-9.27-25.93A27.8,27.8,0,0,1,853,176c.11-1.07.28-2.25.51-3.56a8.22,8.22,0,0,0-1.33-.55,3.47,3.47,0,0,0-1-.18,11.81,11.81,0,0,0-8.9,4.1,13.45,13.45,0,0,0-3.81,9.46q0,5.16,1.79,7.75a6.14,6.14,0,0,0,5.39,2.59,12.2,12.2,0,0,0,4.39-.79,13.51,13.51,0,0,0,3.9-2.32A125.48,125.48,0,0,1,852.85,178.78Z"/><path class="cls-5" d="M889.67,204.87a32.09,32.09,0,0,1-6.76-.77l0,15.67a5.16,5.16,0,1,1-10.32,0q0-1.8.08-14.33.07-9.3,0-15.17-.12-8.29-.53-14.29-.55-8.26-.56-7.57a10.3,10.3,0,0,1,1.38-5.46,4.93,4.93,0,0,1,4.34-2.57,4.69,4.69,0,0,1,3.51,1.46,4.82,4.82,0,0,1,1.42,3.5l0,.38a21.61,21.61,0,0,1,5-2.17,18.8,18.8,0,0,1,5.07-.71,13.25,13.25,0,0,1,12.56,7.49q3,5.64,3,14.64,0,8.4-4.67,13.94A16.64,16.64,0,0,1,889.67,204.87Zm2.58-31.77a11.21,11.21,0,0,0-4.79,1.13,19.36,19.36,0,0,0-4.89,3.4q.45,7.91.45,15.86a20.59,20.59,0,0,0,6.65,1.12,6.88,6.88,0,0,0,5.91-2.81,11.31,11.31,0,0,0,1.87-6.83,38.17,38.17,0,0,0-.45-7.19Q895.91,173.1,892.25,173.1Z"/><path class="cls-5" d="M928.73,204.87A16.4,16.4,0,0,1,916.84,200q-5.45-5.34-5.71-14.26a23.88,23.88,0,0,1,4.52-15.13q5.69-7.84,15.81-7.84a13.9,13.9,0,0,1,11.89,6.15q4,5.53,4,13.71a25,25,0,0,1-4.64,15.22A16.47,16.47,0,0,1,928.73,204.87Zm2.24-32a8.07,8.07,0,0,0-7.25,4.31,16,16,0,0,0-2.24,8.52c0,3.08.85,5.43,2.54,7.07a6.55,6.55,0,0,0,4.71,2,8,8,0,0,0,5.65-2.26,10.21,10.21,0,0,0,2.91-7.19Q937.77,173,931,172.9Z"/><path class="cls-5" d="M984.91,174.9q-.33,5.88-5.19,5.88-4.71,0-4.71-5l-.19-3.88a15.4,15.4,0,0,0-12,8.88l0,19.32a4.9,4.9,0,0,1-1.46,3.63,5,5,0,0,1-3.7,1.44,4.42,4.42,0,0,1-3.59-1.53,5.26,5.26,0,0,1-1.19-3.54V174.94c0-.79,0-2,.07-3.55s.08-2.76.08-3.56a5.25,5.25,0,0,1,1.25-3.59,4.46,4.46,0,0,1,3.57-1.44q4.15,0,4.93,4.38a23.58,23.58,0,0,1,14.69-5.07q7.49,0,7.48,10.22C985,173.63,984.94,174.49,984.91,174.9Z"/><path class="cls-5" d="M1009.21,204.37q-8.94,0-14.62-4.38-6.27-4.85-6.28-13.64,0-9.72,5-16.44a17.6,17.6,0,0,1,14.91-7.46,23.93,23.93,0,0,1,10.8,2.16q5.64,2.83,5.65,8.83,0,4.23-4.6,7.49a59,59,0,0,1-8.41,4.38L999,191a11.24,11.24,0,0,0,4.34,3,15.72,15.72,0,0,0,5.83,1,16,16,0,0,0,8.48-2.11,10.49,10.49,0,0,1,5-1.88q3.89,0,3.88,3.87,0,4.4-6.24,7.15A27.19,27.19,0,0,1,1009.21,204.37Zm-1-32.62a8.22,8.22,0,0,0-5.94,2.38,16.73,16.73,0,0,0-4,7.15l8.41-3.73a60.77,60.77,0,0,0,8-4.34A12.93,12.93,0,0,0,1008.2,171.75Z"/><path class="cls-5" d="M1040.31,218.16a7.35,7.35,0,0,1-3.44,1,4.82,4.82,0,0,1-3.37-1.34,4.29,4.29,0,0,1-1.45-3.27,5.29,5.29,0,0,1,2.24-4.14c1.29-1,2.58-2,3.85-3q8.19-8.26,8.18-26.36a54.34,54.34,0,0,0-2-14.4q-2.28-8.26-6.15-12.64l-3.73-3.76q-2.39-2.65-2.38-4.42a4.88,4.88,0,0,1,1.45-3.48,4.66,4.66,0,0,1,3.47-1.52,6.17,6.17,0,0,1,3.29,1.31q7.8,5.37,12.5,17.25a56.06,56.06,0,0,1,4.18,20.82Q1056.94,209,1040.31,218.16Z"/></svg>