<svg xmlns="http://www.w3.org/2000/svg" width="349.149" height="524.412" viewBox="0 0 349.149 524.412">
  <path id="Union_19" data-name="Union 19" d="M-2917.115,331.412a72.745,72.745,0,0,1-1.02-8.934l2.16-7.611a2.264,2.264,0,0,1,2.9-1.526l2.165.733-7.93-14.948-6.391,1.933s-40.323-48.91-76.043-108.321c-7.664-12.747-15.152-26.106-22.184-39.226q-13.041,43.037-24.349,53.793-20.631,19.62-112.136,11.6l-.222-.83q-10.222,1.567-21.456,3.2c.4.635.679,1.03.679,1.03l4.846,1.066a1.122,1.122,0,0,1,.848,1.367l-7.807,31.243s.094,3.552.377,8.9-8.178,4.333-8.178,4.333-10.379-58.852-10.99-62.319a72.038,72.038,0,0,1,8.548-2.533l7.8.8a2.244,2.244,0,0,1,1.99,2.571l-.068.445q10.07-3.235,19.108-6.152l-.645-2.408q73.108-26.209,75.084-30.577,1.721-3.805,14.636-83.27a14.069,14.069,0,0,1-3.489-4.191c-5.094-9.391-7.432-20.73-7.735-33.059-3.2,9.31-5.884,17.678-7.716,24.377-3.26,11.929-15.9,13.825-15.9,18.42l-1.933-.534c-.758,2.339-1.269,3.865-1.461,4.339-2.619,6.491,2.924,16.376,5.294,21.687-3.736,1.671-5.472-.463-7.372-2.6-2.026-2.274-4.239-4.549-9.264-2.211-6.43,2.992-11.746,7.739-18.082,7.739h0a14.7,14.7,0,0,1-7.837-2.447c-1.264-.779-2.647-3.712.7-6,8.33-5.711,20.332-15.7,21.954-18.993a37.926,37.926,0,0,0,1.689-5.484l-.333-.092c1.129-6.243-6.72-9.283-4.616-23.231,11.9-78.845,57.554-121.2,75.975-135.372l.5-7.156a4,4,0,0,1,4.27-3.712l4.521.316,5.691-26.882c-5.937-.447-14.507-6.709-16.221-12.225-3.974-12.8,1.562-30.23,15.66-32.784-.837-2.41-4.225-3.38-6.544-3.85-5.557-1.125-11.39.041-16.843,1.212-6.685,1.436-13.47,3.581-20.354,3.634a29.68,29.68,0,0,1-10.375-1.863c-3.461-1.264-6.172-3.246-9.2-5.265-2.86-1.907-5.971-1.5-9.13-.607a49.859,49.859,0,0,0-9.365,3.748c-6.4,3.309-12.316,7.389-19.159,9.8a51.152,51.152,0,0,1-15.9,2.913c-9.4.2-20.691-1.846-26.775-9.772-4.2-5.467-4.2-12.26-1.647-18.447,2.373-5.752,6.575-9.839,11.669-13.235,5.443-3.631,11.511-6.349,18.094-6.859,7.052-.547,13.87,1.832,19.836,5.47,5.827,3.553,11.048,7.3,17.957,8.358a43.526,43.526,0,0,0,20.28-1.952c6.88-2.264,13.477-4.669,20.764-5.26,6.809-.552,13.972.071,20.3,2.793a28.209,28.209,0,0,1,13.373,12.105,34.827,34.827,0,0,1,3.614,9.177c.275,1.134.545,2.271.736,3.422.165.992-.037,2.436.514,3.29.673,1.043,1.9.784,3.04.784,1.779,0,11.419.4,15,.99,4.947.812,14.124,4.99,15.594,8.31.933,2.106.9,4.511-.827,5.893,6.3,12.526,5.458,43.1-2.863,45.272-3.352.876-10.491-1.269-17.758-5.709l2.659,19.069,5.2.364a4,4,0,0,1,3.712,4.27l-.852,12.191q-.06,3.843.038,7.489c24.361,45.611,88.435,77.342,92.794,95.6,1.784,7.471-3.594,11.248-.816,13.523l-.752.551,5.612,5.474q13.994,5.97,22.935,13.181c1.339,1.615,2.8,4.713-3.507,3.327s-13-2.56-14.185-.509,2.308,5.192.117,7.875a.83.83,0,0,1-.671.32q-3.018,0-14.06-17.391l-7.209-4.25-1,.733c-1.027-1.2-2.608-.781-5.021-.364a21.55,21.55,0,0,1-11.333-.768c-4.23-1.417-20.146-14.69-36.631-34.619,5.234,10.324,8.245,19.175,4.988,29.32-1.128,3.513-3.678,7.066-7.245,10.494,7.606,15.553,30.578,63.317,51.063,113.987,24.983,61.791,42.2,113.245,42.2,113.245l-5.409,1.635,6.937,17.035,1.272-3.085a1.133,1.133,0,0,1,1.508-.6l29.675,13.227s3.546.528,8.908,1.184,2.873,8.882,2.873,8.882Z" transform="translate(3201.843 193)" fill="#f8f8f8"/>
</svg>
