<?xml version="1.0"?>
<svg xmlns="http://www.w3.org/2000/svg" viewBox="0 0 512 512" width="512" height="512"><g id="outline"><path d="M374,105.578a49.578,49.578,0,0,0-84.635-35.057L268,91.887,246.635,70.521a49.578,49.578,0,0,0-70.114,70.114l53.153,53.153A44.194,44.194,0,0,0,206.8,209.6l-27.1,36.135a43.891,43.891,0,0,0-7.63,36.478L200,400.929V488a8,8,0,0,0,8,8H312a8,8,0,0,0,8-8V418.807l11.306-14.132a94.792,94.792,0,0,0,20.694-59,80.971,80.971,0,0,0-2.354-19.285,28.287,28.287,0,0,0,7.828-31.75l-3.571-8.926a25.672,25.672,0,0,0,.188-19.531L343.6,239.968A27.982,27.982,0,0,0,324,192H308.115l51.364-51.365A49.255,49.255,0,0,0,374,105.578Zm-55.188,289.1L305.753,411A8,8,0,0,0,304,416v64H216V400a7.962,7.962,0,0,0-.213-1.832L187.642,278.55a27.933,27.933,0,0,1,4.856-23.214L219.6,219.2A28.13,28.13,0,0,1,242,208h7.269A32.979,32.979,0,0,0,248,217.089V232h-8a8,8,0,0,0,0,16h8v11.719l-20.438,13.625a8,8,0,1,0,8.876,13.312L248,278.948V313a8,8,0,0,0,16,0V217.089a17.089,17.089,0,0,1,34.107-1.547l2.3,25.259,0,.028,3.627,39.9a8.006,8.006,0,0,0,1.72,4.273l15.959,19.947A65.447,65.447,0,0,1,336,345.679,78.727,78.727,0,0,1,318.812,394.68Zm19.255-94.469a25.682,25.682,0,0,0,3.781-1.553l.77,1.927a12.022,12.022,0,0,1,.337,7.906A81.288,81.288,0,0,0,338.067,300.211Zm1.168-28.083a9.713,9.713,0,0,1-11.8,12.913,8.072,8.072,0,0,0-1.378-.272l-6.311-7.888L317.124,248H324a28.014,28.014,0,0,0,5.375-.523ZM336,220a12.013,12.013,0,0,1-12,12h-8.331l-1.628-17.907A33.761,33.761,0,0,0,312.917,208H324A12.013,12.013,0,0,1,336,220Zm12.165-90.68-56.413,56.414A33.4,33.4,0,0,0,281.089,184a32.95,32.95,0,0,0-21.566,8.012q-.219-.012-.441-.012h-8.567l-62.68-62.68A33.577,33.577,0,1,1,235.32,81.835l27.023,27.022a8,8,0,0,0,11.314,0L300.68,81.835a33.577,33.577,0,1,1,47.485,47.485Z"/><path d="M274.343,158.343l-8,8a8,8,0,0,0,11.314,11.314l8-8a8,8,0,0,0-11.314-11.314Z"/><path d="M314.343,118.343l-20,20a8,8,0,0,0,11.314,11.314l20-20a8,8,0,1,0-11.314-11.314Z"/><path d="M109.359,16a8,8,0,0,0-8,8V40a8,8,0,0,0,16,0V24A8,8,0,0,0,109.359,16Z"/><path d="M92.574,45.072l-13.856-8a8,8,0,1,0-8,13.856l13.856,8a8,8,0,1,0,8-13.856Z"/><path d="M84.574,69.072l-13.856,8a8,8,0,1,0,8,13.856l13.856-8a8,8,0,1,0-8-13.856Z"/><path d="M109.359,80a8,8,0,0,0-8,8v16a8,8,0,0,0,16,0V88A8,8,0,0,0,109.359,80Z"/><path d="M148,77.072l-13.856-8a8,8,0,0,0-8,13.856l13.856,8a8,8,0,1,0,8-13.856Z"/><path d="M140,37.072l-13.856,8a8,8,0,1,0,8,13.856l13.856-8a8,8,0,1,0-8-13.856Z"/><path d="M403.713,200a8,8,0,0,0-8,8v8a8,8,0,0,0,16,0v-8A8,8,0,0,0,403.713,200Z"/><path d="M378.928,189.072l-6.928,4a8,8,0,1,0,8,13.856l6.928-4a8,8,0,0,0-8-13.856Z"/><path d="M386.928,165.072l-6.928-4a8,8,0,0,0-8,13.856l6.928,4a8,8,0,0,0,8-13.856Z"/><path d="M403.713,144a8,8,0,0,0-8,8v8a8,8,0,0,0,16,0v-8A8,8,0,0,0,403.713,144Z"/><path d="M424.505,180a7.978,7.978,0,0,0,3.992-1.072l6.929-4a8,8,0,0,0-8-13.858l-6.929,4A8,8,0,0,0,424.505,180Z"/><path d="M435.426,193.071l-6.929-4a8,8,0,0,0-8,13.858l6.929,4a8,8,0,0,0,8-13.858Z"/></g></svg>
