<svg xmlns="http://www.w3.org/2000/svg" width="493.149" height="741.412" viewBox="0 0 493.149 741.412">
  <path id="Union_19" data-name="Union 19" d="M-2799.685,548.412a102.869,102.869,0,0,1-1.441-12.631l3.051-10.76a3.2,3.2,0,0,1,4.1-2.157l3.056,1.035-11.2-21.133-9.025,2.733s-56.954-69.148-107.405-153.144c-10.823-18.021-21.4-36.909-31.333-55.458q-18.419,60.844-34.391,76.053-29.138,27.74-158.385,16.4l-.314-1.174q-14.438,2.215-30.3,4.528c.569.9.959,1.455.959,1.455l6.844,1.507a1.586,1.586,0,0,1,1.2,1.934l-11.026,44.169s.133,5.023.532,12.582-11.551,6.126-11.551,6.126-14.659-83.2-15.522-88.105a101.8,101.8,0,0,1,12.073-3.582l11.021,1.129a3.171,3.171,0,0,1,2.811,3.636l-.1.629q14.222-4.572,26.988-8.7l-.912-3.4q103.262-37.053,106.052-43.228,2.431-5.38,20.673-117.728a19.888,19.888,0,0,1-4.928-5.926c-7.195-13.277-10.5-29.308-10.925-46.737-4.524,13.161-8.312,24.992-10.9,34.464-4.6,16.865-22.455,19.546-22.455,26.043l-2.732-.755c-1.07,3.307-1.792,5.464-2.063,6.134-3.7,9.176,4.131,23.152,7.477,30.661-5.277,2.363-7.729-.653-10.412-3.67-2.861-3.216-5.988-6.431-13.085-3.127-9.08,4.228-16.59,10.94-25.539,10.941h0a20.756,20.756,0,0,1-11.07-3.46c-1.784-1.1-3.738-5.247.983-8.488,11.765-8.073,28.717-22.2,31.009-26.852a53.712,53.712,0,0,0,2.386-7.753l-.47-.13c1.595-8.826-9.492-13.125-6.519-32.844,16.8-111.47,81.29-171.35,107.308-191.389l.823-11.768a4,4,0,0,1,4.27-3.711l8.031.562,8.037-38.006c-8.384-.631-20.49-9.484-22.91-17.284-5.613-18.093,2.207-42.738,22.119-46.35-1.183-3.407-5.968-4.778-9.243-5.443-7.851-1.591-16.089.059-23.789,1.715-9.442,2.03-19.026,5.063-28.748,5.137a41.875,41.875,0,0,1-14.655-2.633c-4.889-1.786-8.718-4.59-12.991-7.443-4.04-2.7-8.434-2.119-12.9-.859a70.4,70.4,0,0,0-13.228,5.3c-9.042,4.679-17.4,10.446-27.061,13.848a72.2,72.2,0,0,1-22.464,4.12c-13.272.288-29.225-2.61-37.818-13.816-5.928-7.731-5.932-17.333-2.326-26.08,3.351-8.132,9.287-13.91,16.481-18.713,7.689-5.134,16.259-8.976,25.557-9.7,9.961-.774,19.59,2.59,28.017,7.734,8.23,5.024,15.6,10.317,25.362,11.817a61.412,61.412,0,0,0,28.645-2.76c9.717-3.2,19.034-6.6,29.326-7.435,9.617-.78,19.736.1,28.677,3.947a39.86,39.86,0,0,1,18.889,17.114,49.225,49.225,0,0,1,5.1,12.975c.388,1.6.771,3.209,1.04,4.838.233,1.4-.052,3.444.726,4.652.95,1.474,2.689,1.107,4.294,1.107,2.511,0,16.128.571,21.186,1.4,6.988,1.147,19.948,7.054,22.025,11.748,1.318,2.979,1.269,6.378-1.167,8.333,8.895,17.709,7.708,60.93-4.044,64-4.735,1.237-14.818-1.795-25.082-8.07l3.756,26.956,8.994.629a4,4,0,0,1,3.711,4.27l-1.32,18.882q-.083,5.445.054,10.6c34.409,64.486,124.907,109.342,131.063,135.153,2.519,10.563-5.076,15.9-1.153,19.12l-1.062.779,7.926,7.739q19.767,8.44,32.393,18.636c1.893,2.284,3.953,6.664-4.952,4.7s-18.362-3.619-20.037-.72,3.259,7.34.166,11.134a1.169,1.169,0,0,1-.949.454q-4.263,0-19.858-24.587l-10.183-6.008-1.415,1.036c-1.449-1.693-3.684-1.1-7.091-.515a30.428,30.428,0,0,1-16.008-1.085c-5.974-2-28.454-20.771-51.735-48.939,7.392,14.594,11.642,27.107,7.042,41.448-1.593,4.966-5.195,9.99-10.234,14.837,10.742,21.988,43.188,89.517,72.124,161.154,35.286,87.361,59.6,160.105,59.6,160.105l-7.639,2.313,9.8,24.083,1.8-4.361a1.6,1.6,0,0,1,2.129-.851l41.914,18.7s5.01.747,12.582,1.674,4.059,12.558,4.059,12.558Z" transform="translate(3201.843 193)" fill="#f8f8f8" opacity="0.622"/>
</svg>
