<svg xmlns="http://www.w3.org/2000/svg" width="32.96" height="40" viewBox="0 0 32.96 40">
  <g id="Group_132" data-name="Group 132" transform="translate(-2.001 0)">
    <path id="Path_114" data-name="Path 114" d="M16.411,23.751a6.966,6.966,0,0,0,6.978-6.978,7.18,7.18,0,0,0-6.978-7.227,6.966,6.966,0,0,0-6.978,6.978A7.356,7.356,0,0,0,16.411,23.751ZM4.7,4.81A16.565,16.565,0,1,1,28.125,28.237L16.411,39.95,4.7,28.237A17.017,17.017,0,0,1,4.7,4.81Z" transform="translate(1.976 0.05)" fill="#a92ea3" fill-rule="evenodd"/>
    <circle id="Ellipse_14" data-name="Ellipse 14" cx="8.5" cy="8.5" r="8.5" transform="translate(10 8)" fill="#a92ea3"/>
  </g>
</svg>
