<svg xmlns="http://www.w3.org/2000/svg" xmlns:xlink="http://www.w3.org/1999/xlink" width="160" height="160" viewBox="0 0 160 160">
  <defs>
    <clipPath id="clip-path">
      <rect id="Rectangle_823" data-name="Rectangle 823" width="160" height="160" transform="translate(315 2915)" fill="#f8ca37" stroke="#707070" stroke-width="1"/>
    </clipPath>
  </defs>
  <g id="Mask_Group_19" data-name="Mask Group 19" transform="translate(-315 -2915)" clip-path="url(#clip-path)">
    <g id="jogging" transform="translate(331.883 2915)">
      <path id="Path_489" data-name="Path 489" d="M117.078,59.7a9.156,9.156,0,1,0,0-18.312H103.622A17.136,17.136,0,0,0,99.5,29.421c.411-.189.819-.391,1.216-.62a14.282,14.282,0,0,0,6.7-8.728l.53-1.976A14.377,14.377,0,0,0,97.776.491h0a14.393,14.393,0,0,0-17.6,10.166l-.53,1.975A14.281,14.281,0,0,0,81.077,23.54c.137.237.281.468.43.695a17.227,17.227,0,0,0-7.881,5.153L62.987,36.355a7.467,7.467,0,0,0-2.725,9.377l4.983,11L62.512,68.455s0,.007,0,.012a3.131,3.131,0,0,0-.081.7v27.5a3.112,3.112,0,0,0,.675,1.937v11.99H44.191a3.113,3.113,0,0,0-1.919-.66H34.219a9.979,9.979,0,0,0-9.967,9.967v19.427a3.126,3.126,0,0,0,3.125,3.125h2.667a15.38,15.38,0,0,0,15.02-12.172H73.574a14.866,14.866,0,0,0,14.111-10.245l.681.961v18.818a3.109,3.109,0,0,0-.876,2.167v8.053A9.979,9.979,0,0,0,97.457,160h19.427a3.126,3.126,0,0,0,3.125-3.125v-2.667a15.38,15.38,0,0,0-10.758-14.65V114.207a30.136,30.136,0,0,0-1.493-9.379L103.9,93.018l-5.61-23.906,1.876-9.413Zm-31.4-45.449.529-1.975a8.125,8.125,0,0,1,15.7,4.205l-.53,1.976a8.122,8.122,0,0,1-9.659,5.815q-.363-.115-.734-.214c-.033-.01-.067-.016-.1-.024a8.122,8.122,0,0,1-5.2-9.784Zm3.431,15.784q.344.11.7.205c.05.013.1.022.151.035a10.862,10.862,0,0,1,7.225,12.411l-.24,1.226a3.124,3.124,0,0,0,3.066,3.727h17.072a2.906,2.906,0,0,1,0,5.812H93.9a8.994,8.994,0,0,1-8.591-6.443,3.125,3.125,0,0,0-6,1.749A15.277,15.277,0,0,0,93.79,59.7L92.527,66.04H69.492L76.008,38.1A10.789,10.789,0,0,1,78.1,33.781c.029-.034.059-.07.087-.1a10.848,10.848,0,0,1,10.923-3.643Zm12.709,76.737A23.883,23.883,0,0,1,103,114.205v24.648H94.617V120a3.131,3.131,0,0,0-.575-1.807l-5.624-7.938V99.279l10.343-1.86ZM68.679,93.54V72.29H86.1L82.635,93.54ZM92.614,72.29l4.478,19.078-8,1.439L92.429,72.29ZM65.955,43.153a1.25,1.25,0,0,1,.455-1.57l2.794-1.83-1.627,6.98ZM30.5,136.189V119.9a3.722,3.722,0,0,1,3.717-3.718h4.928V127.1A9.115,9.115,0,0,1,30.5,136.189ZM73.574,124.03H45.4v-7.187H66.23a3.125,3.125,0,0,0,3.125-3.125V99.79H82.168v15.646A8.6,8.6,0,0,1,73.574,124.03Zm40.175,29.72H97.457a3.721,3.721,0,0,1-3.717-3.717V145.1h10.916A9.118,9.118,0,0,1,113.749,153.75Zm0,0" fill="#f8ca37"/>
      <path id="Path_490" data-name="Path 490" d="M75.939,153.75H37.7a3.125,3.125,0,0,0,0,6.25H75.939a3.125,3.125,0,0,0,0-6.25Zm0,0" fill="#f8ca37"/>
      <path id="Path_491" data-name="Path 491" d="M26.895,153.75a3.126,3.126,0,1,0,2.209.916A3.15,3.15,0,0,0,26.895,153.75Zm0,0" fill="#f8ca37"/>
      <path id="Path_492" data-name="Path 492" d="M14.585,72.29a3.126,3.126,0,1,0-2.209-.916A3.156,3.156,0,0,0,14.585,72.29Zm0,0" fill="#f8ca37"/>
      <path id="Path_493" data-name="Path 493" d="M45.4,86.665a3.125,3.125,0,0,0-3.125-3.125H3.125a3.125,3.125,0,0,0,0,6.25H42.272A3.125,3.125,0,0,0,45.4,86.665Zm0,0" fill="#f8ca37"/>
      <path id="Path_494" data-name="Path 494" d="M27.084,72.29H48.126a3.125,3.125,0,0,0,0-6.25H27.084a3.125,3.125,0,0,0,0,6.25Zm0,0" fill="#f8ca37"/>
    </g>
  </g>
</svg>
