<?xml version="1.0" encoding="iso-8859-1"?>
<!-- Generator: Adobe Illustrator 19.0.0, SVG Export Plug-In . SVG Version: 6.00 Build 0)  -->
<svg version="1.1" id="Capa_1" xmlns="http://www.w3.org/2000/svg" xmlns:xlink="http://www.w3.org/1999/xlink" x="0px" y="0px"
	 viewBox="0 0 512 512" style="enable-background:new 0 0 512 512;" xml:space="preserve">
<g>
	<g>
		<g>
			<rect x="75.999" y="472.914" width="15" height="15"/>
			<rect x="50.999" y="472.914" width="15" height="15"/>
			<rect x="26" y="472.914" width="15" height="15"/>
			<polygon points="419.886,414.223 419.886,429.223 496.997,429.223 496.997,497 15.003,497 15.003,429.223 266.108,429.223 
				266.108,414.223 0.003,414.223 0.003,512 511.997,512 511.997,414.223 			"/>
			<rect x="358.206" y="443.465" width="15" height="15"/>
			<rect x="333.206" y="443.465" width="15" height="15"/>
			<rect x="383.206" y="443.465" width="102.069" height="15"/>
			<rect x="151.648" y="455.615" width="121.349" height="15"/>
			<rect x="105.859" y="334.576" width="15" height="15"/>
			<rect x="155.858" y="334.576" width="86.679" height="15"/>
			<rect x="130.858" y="334.576" width="15" height="15"/>
			<rect x="139.738" y="376.466" width="101.969" height="15"/>
			<path d="M17.903,224.655c0,12.448,10.127,22.575,22.575,22.575c7.123,0,13.481-3.319,17.622-8.488l4.237,4.237H85.88l8.393-8.393
				l62.667,62.668l62.779-62.78l80.646,78.841v70.911c-0.851-0.098-1.716-0.153-2.593-0.153c-12.448,0-22.575,10.127-22.575,22.575
				c0,12.447,10.127,22.574,22.575,22.574c5.789,0,11.075-2.192,15.075-5.788c4,3.596,9.286,5.788,15.075,5.788
				s11.075-2.192,15.075-5.788c4,3.596,9.286,5.788,15.075,5.788s11.075-2.192,15.075-5.788c4,3.596,9.286,5.788,15.075,5.788
				c12.448,0,22.575-10.127,22.575-22.574c0-12.448-10.127-22.575-22.575-22.575c-0.813,0-1.615,0.045-2.406,0.13v-5.97
				l-16.649-16.648h-11.869v-71.901l-51.916-51.915l49.661-49.66l51.384,51.384h87.668V182.56h-64.086l-47.01-47.01
				c2.443,0.267,4.921,0.415,7.434,0.415c37.485,0,67.981-30.497,67.981-67.981S427.919,0,390.433,0s-67.981,30.496-67.981,67.98
				c0,2.513,0.148,4.992,0.415,7.435l-63.686-63.686h-87.668v56.933h64.086l34.71,34.71L156.94,216.74l-38.419-38.42
				c5.169-4.14,8.487-10.499,8.487-17.621c0-12.448-10.127-22.575-22.575-22.575c-12.038,0-21.904,9.471-22.541,21.354
				c-11.478,0.615-20.704,9.842-21.319,21.319c-11.477,0.615-20.704,9.842-21.319,21.319
				C27.374,202.753,17.903,212.619,17.903,224.655z M388.221,399.073c4.177,0,7.575,3.399,7.575,7.575
				c0,4.177-3.398,7.574-7.575,7.574s-7.575-3.397-7.575-7.574S384.044,399.073,388.221,399.073z M297.774,414.223
				c-4.177,0-7.575-3.397-7.575-7.574s3.398-7.575,7.575-7.575c4.177,0,7.575,3.398,7.575,7.575S301.951,414.223,297.774,414.223z
				 M327.923,414.223c-4.177,0-7.575-3.397-7.575-7.574s3.398-7.575,7.575-7.575s7.575,3.398,7.575,7.575
				S332.1,414.223,327.923,414.223z M358.073,414.223c-4.177,0-7.575-3.397-7.575-7.574s3.398-7.575,7.575-7.575
				s7.575,3.398,7.575,7.575S362.249,414.223,358.073,414.223z M362.955,376.584v0.001l7.486,7.486h-55.074v-29.974H342.3v22.487
				H362.955z M333.072,286.67l9.227,9.227v13.039c-6.086-2.839-10.323-8.999-10.323-16.146
				C331.976,290.666,332.364,288.607,333.072,286.67z M342.299,324.737v14.36h-26.933V315.17l7.801-3.232
				C327.726,318.263,334.477,322.901,342.299,324.737z M431.915,197.559h47.181v26.933h-37.614
				c-1.836-7.823-6.475-14.572-12.799-19.132L431.915,197.559z M425.68,224.491h-13.039l-9.227-9.226
				c1.937-0.707,3.996-1.096,6.12-1.096C416.68,214.169,422.841,218.406,425.68,224.491z M390.433,15
				c29.214,0,52.981,23.768,52.981,52.98c0,11.908-3.951,22.91-10.608,31.768l-43.521-43.522c-5.999-5.998-15.762-5.998-21.762,0
				l-3.965,3.965c-3.972,3.973-10.436,3.973-14.408,0l-8.967-8.966C347.213,30.201,367.076,15,390.433,15z M338.545,70.798
				c9.821,9.821,25.801,9.818,35.621,0l3.964-3.965c0.152-0.152,0.398-0.152,0.55,0l43.521,43.522
				c-8.857,6.657-19.859,10.608-31.767,10.608c-28.62,0-51.997-22.816-52.936-51.212L338.545,70.798z M233.695,53.662h-47.181
				V26.729h37.614c1.836,7.823,6.475,14.573,12.799,19.133L233.695,53.662z M239.929,26.729h13.039l9.227,9.227
				c-1.937,0.708-3.997,1.096-6.12,1.096C248.929,37.052,242.768,32.815,239.929,26.729z M291.52,103.371l-43.968-43.969
				l3.224-7.784c1.726,0.281,3.494,0.434,5.298,0.434c6.209,0,12.151-1.72,17.295-4.922l144.688,144.687l-3.225,7.785
				c-1.726-0.281-3.494-0.434-5.298-0.434c-6.209,0-12.151,1.72-17.294,4.922l-37.197-37.197l-70.873,70.874l37.729,37.728
				c-3.201,5.143-4.922,11.084-4.922,17.294c0,1.804,0.152,3.573,0.434,5.298l-7.842,3.248l-89.969-87.955l-45.446,45.446
				c-3.003-1.856-6.275-3.207-9.712-4.008l-0.002-24.368L291.52,103.371z M156.943,268.955c2.087,0,4.113,0.377,6.023,1.062
				l-6.026,6.026l-6.024-6.024C152.827,269.333,154.854,268.955,156.943,268.955z M149.44,230.452l0.002,24.368
				c-3.439,0.801-6.712,2.152-9.715,4.01l-18.949-18.949l19.046-19.045L149.44,230.452z M129.217,210.23l-19.045,19.044
				l-15.901-15.899l-14.605,14.605H69.08l38.944-38.945L129.217,210.23z M104.435,153.124c4.177,0,7.575,3.398,7.575,7.575
				c0,4.177-3.398,7.575-7.575,7.575s-7.575-3.398-7.575-7.575C96.86,156.522,100.258,153.124,104.435,153.124z M83.116,174.443
				c4.177,0,7.575,3.398,7.575,7.575s-3.398,7.574-7.575,7.574s-7.575-3.397-7.575-7.574S78.939,174.443,83.116,174.443z
				 M61.796,195.763c4.177,0,7.575,3.397,7.575,7.574c0,4.177-3.398,7.575-7.575,7.575s-7.575-3.398-7.575-7.575
				C54.221,199.16,57.62,195.763,61.796,195.763z M40.478,217.081c4.177,0,7.575,3.397,7.575,7.574s-3.398,7.575-7.575,7.575
				s-7.575-3.398-7.575-7.575S36.301,217.081,40.478,217.081z"/>
			<path d="M393.781,39.84l1.752-14.896c-6.026-0.711-12.152-0.148-17.92,1.633l4.428,14.332
				C385.818,39.742,389.827,39.377,393.781,39.84z"/>
			<path d="M411.058,48.546l10.937-10.264c-0.301-0.321-0.608-0.638-0.916-0.944c-4.013-4.015-8.684-7.155-13.884-9.334
				l-5.796,13.836c3.393,1.421,6.444,3.474,9.078,6.108C410.674,48.145,410.868,48.344,411.058,48.546z"/>
			<path d="M418.771,67.984c0,1.305-0.091,2.623-0.271,3.917l14.858,2.059c0.273-1.974,0.412-3.984,0.412-5.977
				c0-6.901-1.666-13.774-4.816-19.877l-13.329,6.879C417.683,58.972,418.771,63.467,418.771,67.984z"/>
			
				<rect x="314.101" y="145.319" transform="matrix(0.7071 0.7071 -0.7071 0.7071 213.2209 -178.1038)" width="15" height="46.019"/>
			<rect x="267.774" y="207.141" transform="matrix(0.7071 0.7071 -0.7071 0.7071 232.399 -131.7812)" width="15" height="15"/>
			<rect x="285.458" y="189.468" transform="matrix(0.7071 0.7071 -0.7071 0.7071 225.0829 -149.4619)" width="15" height="15"/>
			<rect x="39.774" y="52.649" width="15" height="15"/>
			<rect x="64.773" y="52.649" width="86.679" height="15"/>
			<rect x="14.774" y="52.649" width="15" height="15"/>
			<rect x="135.018" y="95.869" width="59.999" height="15"/>
			<rect x="61.796" y="95.869" width="58.219" height="15"/>
			<rect x="250.497" y="334.576" width="15" height="15"/>
		</g>
	</g>
</g>
<g>
</g>
<g>
</g>
<g>
</g>
<g>
</g>
<g>
</g>
<g>
</g>
<g>
</g>
<g>
</g>
<g>
</g>
<g>
</g>
<g>
</g>
<g>
</g>
<g>
</g>
<g>
</g>
<g>
</g>
</svg>
