<svg id="Layer_1" data-name="Layer 1" xmlns="http://www.w3.org/2000/svg" viewBox="0 0 696.37 182.43"><defs><style>.cls-1{fill:#1d1d1b;}.cls-2{fill:#e3032e;}.cls-3{fill:#fff;}</style></defs><path class="cls-1" d="M72.76,196.2v-.26c0-20.62,16.61-37.36,39-37.36,22.23,0,38.68,16.45,38.68,37.1v.26c0,20.61-16.6,37.36-38.94,37.36S72.76,216.84,72.76,196.2Zm57.59,0v-.26c0-10.59-7.64-19.83-18.86-19.83-11.68,0-18.65,9-18.65,19.57v.26c0,10.58,7.63,19.81,18.91,19.81C123.38,215.75,130.35,206.78,130.35,196.2Z" transform="translate(-72.76 -104.1)"/><path class="cls-1" d="M158.05,206.39V159.9h20.34v40c0,9.66,4.56,14.61,12.34,14.61s12.73-5,12.73-14.61v-40h20.35v71.79H203.46V221.52c-4.7,6-10.72,11.52-21,11.52C167,233,158.05,222.84,158.05,206.39Z" transform="translate(-72.76 -104.1)"/><path class="cls-1" d="M235.43,159.9h20.38v14.46c4.12-9.9,10.85-16.33,22.88-15.78v21.27h-1.07c-13.52,0-21.81,8.18-21.81,25.33v26.51H235.43Z" transform="translate(-72.76 -104.1)"/><path class="cls-2" d="M477.15,195.31a91.23,91.23,0,1,1-91.21-91.21,91.23,91.23,0,0,1,91.21,91.21" transform="translate(-72.76 -104.1)"/><path class="cls-3" d="M352.51,231.72A43.57,43.57,0,0,1,337.06,229a42.5,42.5,0,0,1-13.62-8.41l7.35-8.77a44,44,0,0,0,10.26,6.73,28.31,28.31,0,0,0,11.76,2.32q5.67,0,9-2.38a7.48,7.48,0,0,0,3.32-6.36v-.2a7.69,7.69,0,0,0-.66-3.34,7,7,0,0,0-2.39-2.73,18.11,18.11,0,0,0-4.78-2.39,66.53,66.53,0,0,0-7.93-2.2,76.16,76.16,0,0,1-9.93-2.94,27.48,27.48,0,0,1-7.28-4,15.79,15.79,0,0,1-4.51-5.72,20,20,0,0,1-1.55-8.18v-.18a18.73,18.73,0,0,1,6.67-14.6,23.26,23.26,0,0,1,7.5-4.13,28.88,28.88,0,0,1,9.54-1.51,40.74,40.74,0,0,1,13.77,2.24,41.57,41.57,0,0,1,11.52,6.54l-6.57,9.24a43,43,0,0,0-9.48-5.31,25.93,25.93,0,0,0-9.46-1.85q-5.36,0-8.36,2.41a7.26,7.26,0,0,0-3,5.86v.18a8.27,8.27,0,0,0,.72,3.55,6.8,6.8,0,0,0,2.53,2.78,21.23,21.23,0,0,0,5.11,2.35c2.15.73,4.89,1.48,8.21,2.3a80.86,80.86,0,0,1,9.76,3.07,24.92,24.92,0,0,1,7,4.14,16.29,16.29,0,0,1,4.23,5.68,18.64,18.64,0,0,1,1.46,7.5v.2a20.43,20.43,0,0,1-1.84,8.76,18.72,18.72,0,0,1-5.08,6.6,22.37,22.37,0,0,1-7.83,4.05,33.68,33.68,0,0,1-10.05,1.39" transform="translate(-72.76 -104.1)"/><path class="cls-3" d="M416.63,231.93a38.41,38.41,0,0,1-14.81-2.73,33.69,33.69,0,0,1-11.4-7.57,34.37,34.37,0,0,1-7.32-11.35,37.85,37.85,0,0,1-2.58-14.19v-.2a36.6,36.6,0,0,1,2.65-13.83,35.17,35.17,0,0,1,18.9-19.31,35.86,35.86,0,0,1,14.5-2.89,51.28,51.28,0,0,1,8.3.64,40.21,40.21,0,0,1,6.92,1.84,38.54,38.54,0,0,1,6,2.94,45.53,45.53,0,0,1,5.52,4l-7.77,9.27c-1.32-1.12-2.69-2.14-4.06-3.09a28.6,28.6,0,0,0-4.4-2.34,28,28,0,0,0-5-1.5,31.18,31.18,0,0,0-6-.52,20.21,20.21,0,0,0-8.91,2,23,23,0,0,0-7.15,5.34,25.17,25.17,0,0,0-4.81,7.83,26.44,26.44,0,0,0-1.73,9.48v.19a28.74,28.74,0,0,0,1.7,10A22.51,22.51,0,0,0,400,213.8a23.51,23.51,0,0,0,7.45,5.2,24.24,24.24,0,0,0,9.69,1.87,28.86,28.86,0,0,0,9.27-1.44,26,26,0,0,0,7.5-3.85V202.46H416.05V191.81h29.67v29.27a49.33,49.33,0,0,1-5.72,4.18,43.65,43.65,0,0,1-6.78,3.48,43,43,0,0,1-7.8,2.35,44.81,44.81,0,0,1-8.79.84" transform="translate(-72.76 -104.1)"/><path class="cls-1" d="M502.15,176.4H493.7V159.67h8.45v-4.55c0-7.89,2-13.67,5.75-17.41s9.24-5.63,16.48-5.63a45,45,0,0,1,14.47,2V151a25.43,25.43,0,0,0-9.25-1.77c-4.69,0-7.36,2.42-7.36,7.78v2.81h16.47v16.6H522.52v54.38H502.15Z" transform="translate(-72.76 -104.1)"/><path class="cls-1" d="M542.71,205.47V159h20.38v40.05c0,9.64,4.53,14.59,12.29,14.59s12.74-4.95,12.74-14.59V159h20.34v71.78H588.12V220.62c-4.7,6-10.71,11.5-21,11.5C551.68,232.12,542.71,222,542.71,205.47Z" transform="translate(-72.76 -104.1)"/><path class="cls-1" d="M620.1,159h20.35v10.18c4.69-6,10.73-11.52,21-11.52,15.41,0,24.37,10.17,24.37,26.65v46.47H665.49v-40c0-9.64-4.54-14.6-12.33-14.6s-12.71,5-12.71,14.6v40H620.1Z" transform="translate(-72.76 -104.1)"/><path class="cls-1" d="M693.72,195v-.26c0-24,15.69-37.1,32.68-37.1,10.85,0,17.55,5,22.37,10.71V133h20.36v97.78H748.77v-10.3c-4.94,6.68-11.78,11.64-22.37,11.64C709.66,232.12,693.72,219,693.72,195Zm55.33,0v-.26c0-11.91-7.91-19.83-17.41-19.83s-17.56,7.77-17.56,19.83V195c0,11.92,8,19.83,17.56,19.83S749.05,206.94,749.05,195Z" transform="translate(-72.76 -104.1)"/></svg>