<svg id="Layer_1" data-name="Layer 1" xmlns="http://www.w3.org/2000/svg" viewBox="0 0 783 783"><defs><style>.cls-1{fill:#ffffff;}.cls-2{fill:#ffffff;}</style></defs><path class="cls-1" d="M110.37,453.42l10.9-13h4v26.25h-3V443.8l-12,14.25-12-14.25v22.89h-3V440.44h4Z"/><path class="cls-1" d="M153.5,445.55a4.29,4.29,0,0,1,3.15,1.29A4.22,4.22,0,0,1,158,450v16.73H140.81a4.4,4.4,0,0,1-4.41-4.41v-7.66h18.52V450a1.42,1.42,0,0,0-1.42-1.42H136.4v-3Zm1.42,18.15v-6.09H139.39v4.67a1.43,1.43,0,0,0,1.42,1.42Z"/><path class="cls-1" d="M186.21,445.55h3.93l-9.59,10.57,9.56,10.57h-3.9l-8.32-9.08h-5.83v9.08h-3V438.62h3v16h5.83Z"/><path class="cls-1" d="M216.72,445.55a4.32,4.32,0,0,1,3.16,1.29,4.25,4.25,0,0,1,1.29,3.12v7.65H202.61v4.67a1.36,1.36,0,0,0,.42,1,1.38,1.38,0,0,0,1,.42h17.14v3H204a4.42,4.42,0,0,1-4.41-4.41V450a4.42,4.42,0,0,1,4.41-4.41Zm-14.11,9.07h15.54V450a1.38,1.38,0,0,0-.42-1,1.41,1.41,0,0,0-1-.41H204a1.41,1.41,0,0,0-1,.41,1.38,1.38,0,0,0-.42,1Z"/><path class="cls-1" d="M275.61,444.82v1h-3v-1a1.42,1.42,0,0,0-1.42-1.43h-17.5a1.36,1.36,0,0,0-1,.42,1.38,1.38,0,0,0-.42,1v5.87a1.3,1.3,0,0,0,.42,1,1.38,1.38,0,0,0,1,.4h17.5a4.37,4.37,0,0,1,4.38,4.38v5.87a4.35,4.35,0,0,1-4.38,4.37h-17.5a4.34,4.34,0,0,1-4.37-4.37v-1h2.95v1a1.43,1.43,0,0,0,1.42,1.42h17.5a1.38,1.38,0,0,0,1-.42,1.35,1.35,0,0,0,.41-1v-5.87a1.31,1.31,0,0,0-.41-1,1.45,1.45,0,0,0-1-.4h-17.5a4.34,4.34,0,0,1-4.37-4.37v-5.87a4.35,4.35,0,0,1,4.37-4.38h17.5a4.37,4.37,0,0,1,4.38,4.38Z"/><path class="cls-1" d="M303.87,445.55a4.42,4.42,0,0,1,4.41,4.41v12.32a4.42,4.42,0,0,1-4.41,4.41H289.72v8.39h-3V445.55Zm1.42,16.73V450a1.38,1.38,0,0,0-.42-1,1.41,1.41,0,0,0-1-.41H291.18a1.45,1.45,0,0,0-1,.41,1.33,1.33,0,0,0-.44,1v12.32a1.31,1.31,0,0,0,.44,1,1.42,1.42,0,0,0,1,.42h12.69a1.38,1.38,0,0,0,1-.42A1.36,1.36,0,0,0,305.29,462.28Z"/><path class="cls-1" d="M322.53,445.55h12.69a4.32,4.32,0,0,1,3.16,1.29,4.25,4.25,0,0,1,1.29,3.12v12.32a4.25,4.25,0,0,1-1.29,3.12,4.32,4.32,0,0,1-3.16,1.29H322.53a4.42,4.42,0,0,1-4.41-4.41V450a4.42,4.42,0,0,1,4.41-4.41Zm12.69,3H322.53a1.42,1.42,0,0,0-1.42,1.42v12.32a1.43,1.43,0,0,0,1.42,1.42h12.69a1.43,1.43,0,0,0,1.42-1.42V450a1.42,1.42,0,0,0-1.42-1.42Z"/><path class="cls-1" d="M354.73,445.55h11.89v3H354.73a1.42,1.42,0,0,0-1.42,1.42v16.73h-3V450a4.4,4.4,0,0,1,4.41-4.41Z"/><path class="cls-1" d="M388.46,448.54H379.3v13.74a1.36,1.36,0,0,0,.42,1,1.38,1.38,0,0,0,1,.42h7.73v3h-7.73a4.39,4.39,0,0,1-4.42-4.41V438.62h3v6.93h9.16Z"/><path class="cls-1" d="M419.92,450v.29h-3V450a1.38,1.38,0,0,0-.42-1,1.41,1.41,0,0,0-1-.41H402.78a1.41,1.41,0,0,0-1,.41,1.38,1.38,0,0,0-.42,1v3.24a1.38,1.38,0,0,0,.42,1,1.37,1.37,0,0,0,1,.41h12.69a4.33,4.33,0,0,1,3.16,1.3,4.25,4.25,0,0,1,1.29,3.12v3.24a4.25,4.25,0,0,1-1.29,3.12,4.32,4.32,0,0,1-3.16,1.29H402.78a4.42,4.42,0,0,1-4.41-4.41V462h3v.29a1.36,1.36,0,0,0,.42,1,1.38,1.38,0,0,0,1,.42h12.69a1.38,1.38,0,0,0,1-.42,1.36,1.36,0,0,0,.42-1V459a1.43,1.43,0,0,0-1.43-1.43H402.78a4.42,4.42,0,0,1-4.41-4.41V450a4.42,4.42,0,0,1,4.41-4.41h12.69a4.32,4.32,0,0,1,3.16,1.29A4.25,4.25,0,0,1,419.92,450Z"/><path class="cls-1" d="M472.94,452.33l.14.62a4.27,4.27,0,0,1,1.46,3.24v6.13a4.35,4.35,0,0,1-4.38,4.37H448.29V440.44H469a4.37,4.37,0,0,1,4.38,4.38v5.57A4.36,4.36,0,0,1,472.94,452.33ZM469,443.39H452.66a1.36,1.36,0,0,0-1,.42,1.38,1.38,0,0,0-.42,1v5.57a1.38,1.38,0,0,0,.42,1,1.36,1.36,0,0,0,1,.42H469a1.32,1.32,0,0,0,1-.42,1.4,1.4,0,0,0,.4-1v-5.57a1.4,1.4,0,0,0-.4-1A1.32,1.32,0,0,0,469,443.39Zm2.56,18.93v-6.13a1.36,1.36,0,0,0-.42-1,1.38,1.38,0,0,0-1-.42h-17.5a1.43,1.43,0,0,0-1.42,1.42v6.13a1.43,1.43,0,0,0,1.42,1.42h17.5a1.38,1.38,0,0,0,1-.42A1.36,1.36,0,0,0,471.59,462.32Z"/><path class="cls-1" d="M502.73,445.55a4.3,4.3,0,0,1,3.15,1.29,4.25,4.25,0,0,1,1.29,3.12v7.65H488.61v4.67a1.36,1.36,0,0,0,.42,1,1.38,1.38,0,0,0,1,.42h17.13v3H490a4.42,4.42,0,0,1-4.42-4.41V450a4.42,4.42,0,0,1,4.42-4.41Zm-14.12,9.07h15.54V450a1.38,1.38,0,0,0-.42-1,1.41,1.41,0,0,0-1-.41H490a1.41,1.41,0,0,0-1,.41,1.38,1.38,0,0,0-.42,1Z"/><path class="cls-1" d="M535.28,445.55a4.32,4.32,0,0,1,3.16,1.29,4.25,4.25,0,0,1,1.29,3.12v16.73H522.6a4.42,4.42,0,0,1-4.42-4.41v-7.66h18.53V450a1.38,1.38,0,0,0-.42-1,1.41,1.41,0,0,0-1-.41h-17.1v-3Zm1.43,18.15v-6.09H521.17v4.67a1.36,1.36,0,0,0,.42,1,1.38,1.38,0,0,0,1,.42Z"/><path class="cls-1" d="M569.37,445.55h3v16.73a4.4,4.4,0,0,1-4.44,4.41H555.23a4.4,4.4,0,0,1-4.41-4.41V445.55h3v16.73a1.42,1.42,0,0,0,1.42,1.42h12.69a1.42,1.42,0,0,0,1-.42,1.33,1.33,0,0,0,.43-1Z"/><path class="cls-1" d="M595,448.54h-9.15v13.74a1.43,1.43,0,0,0,1.42,1.42H595v3h-7.73a4.22,4.22,0,0,1-3.13-1.29,4.28,4.28,0,0,1-1.28-3.12V438.62h3v6.93H595Z"/><path class="cls-1" d="M605.29,438.62h3v3h-3Zm0,28.07V445.55h3v21.14Z"/><path class="cls-1" d="M622.9,441.61a1.43,1.43,0,0,0-1.42,1.42v2.52h9.15v3h-9.15v18.15h-3V443a4.34,4.34,0,0,1,4.41-4.41h7.73v3Z"/><path class="cls-1" d="M659.54,445.55h3v16.73a4.4,4.4,0,0,1-4.45,4.41H645.4a4.42,4.42,0,0,1-4.42-4.41V445.55h3v16.73a1.36,1.36,0,0,0,.42,1,1.38,1.38,0,0,0,1,.42h12.68a1.46,1.46,0,0,0,1-.42,1.33,1.33,0,0,0,.43-1Z"/><path class="cls-1" d="M673.58,438.62h3v23.66A1.43,1.43,0,0,0,678,463.7h3.58v3H678a4.42,4.42,0,0,1-4.41-4.41Z"/><path class="cls-1" d="M339.1,314H288A17.82,17.82,0,0,0,270.1,331.8v17.13a17.13,17.13,0,0,0,5.25,12.67,17.31,17.31,0,0,0,12.6,5.18H338V382H288.8v-7.12H270.1V383A17.82,17.82,0,0,0,288,400.8H339.1A17.93,17.93,0,0,0,357,383V365.82A17.91,17.91,0,0,0,339.1,348H288.8v-15.2H338v7.11H357V331.8A17.93,17.93,0,0,0,339.1,314Z"/><path class="cls-1" d="M101,314H49.86A17.81,17.81,0,0,0,32,331.8v17.13a17.79,17.79,0,0,0,17.85,17.85H99.91V382H50.7v-7.12H32V383A17.81,17.81,0,0,0,49.86,400.8H101A17.93,17.93,0,0,0,118.85,383V365.82A17.91,17.91,0,0,0,101,348H50.7v-15.2H99.91v7.11h18.94V331.8A17.93,17.93,0,0,0,101,314Z"/><path class="cls-1" d="M440.53,377.28A35.3,35.3,0,0,1,437,373.7,34.82,34.82,0,0,1,433,334a16.64,16.64,0,0,0-9.94-3.12H369.61v97.7h18.46V400.8h35a16.76,16.76,0,0,0,12.37-5.19,16.94,16.94,0,0,0,5.12-12.3v-6Zm-18.45,5.06h-34v-33h34Z"/><path class="cls-1" d="M200.63,314h-51a17.7,17.7,0,0,0-17.85,17.85V383a17.7,17.7,0,0,0,17.85,17.85h51a17.92,17.92,0,0,0,18-17.85V350.14H180.85V369h18.81v13H150.45V332.77h49.21V340H218.6v-8.2a17.92,17.92,0,0,0-18-17.85Z"/><path class="cls-1" d="M537.74,333.66a34.8,34.8,0,0,1,2.57,29.14,35.2,35.2,0,0,1-7.83,12.48l-.34.36-2.47,2.46v22.7h18.45V349.29h37.76V330.84h-38.6A16.76,16.76,0,0,0,537.74,333.66Z"/><rect class="cls-1" x="595.52" y="330.84" width="18.45" height="69.96"/><path class="cls-1" d="M644.13,310.09H625.67v73.22a17.62,17.62,0,0,0,17.61,17.49h26.78V382.34H644.13v-33h25.93V330.84H644.13Z"/><path class="cls-1" d="M732.54,331.08v51.26H698.4V331.08H680v52.23a17.72,17.72,0,0,0,17.61,17.49h35v6.51H691.05v18.57H733.5A17.48,17.48,0,0,0,751,408.39V331.08Z"/><rect class="cls-1" x="595.52" y="307.92" width="18.45" height="18.57"/><path class="cls-2" d="M531.66,351a24.18,24.18,0,0,0-46.21-10,24.18,24.18,0,0,0-44.83,18,24.34,24.34,0,0,0,7.19,10.41L484.69,406a1.15,1.15,0,0,0,.82.35,1.18,1.18,0,0,0,.83-.35l38.25-38h0A24.08,24.08,0,0,0,531.66,351Z"/></svg>