<svg id="Layer_1" data-name="Layer 1" xmlns="http://www.w3.org/2000/svg" viewBox="0 0 790.75 258.14"><defs><style>.cls-1{fill:#732281;}.cls-2{fill:#77777a;}</style></defs><path class="cls-1" d="M32.41,232.94H65.86v15.51h.48A39.64,39.64,0,0,1,72,242a42.8,42.8,0,0,1,8.24-5.95,52.47,52.47,0,0,1,10.31-4.37A41.28,41.28,0,0,1,102.46,230a60.72,60.72,0,0,1,23.76,4.49,53,53,0,0,1,18.31,12.6,56.35,56.35,0,0,1,11.76,19.27,70.6,70.6,0,0,1,4.12,24.5,74.05,74.05,0,0,1-3.77,23.62,64.84,64.84,0,0,1-10.65,20,51.91,51.91,0,0,1-16.86,13.93,47.75,47.75,0,0,1-22.54,5.22,62.76,62.76,0,0,1-21.21-3.51,34,34,0,0,1-16.12-12h-.49V406H32.41Zm33.45,58.91q0,13.33,7.64,21.58T95,321.67q13.81,0,21.45-8.24T124,291.85q0-13.34-7.64-21.58T95,262q-13.82,0-21.45,8.24T65.86,291.85Z" transform="translate(-32.41 -167.49)"/><path class="cls-1" d="M179.31,195.84a21.1,21.1,0,1,1,6.18,14.92A20.37,20.37,0,0,1,179.31,195.84Zm2.9,37.1h36.36V350.76H182.21Z" transform="translate(-32.41 -167.49)"/><path class="cls-1" d="M324.53,271a20.49,20.49,0,0,0-7.52-6.42A22,22,0,0,0,306.58,262q-13.81,0-21.45,8.24t-7.65,21.58q0,13.33,7.65,21.58t21.45,8.24A19.52,19.52,0,0,0,317,319a31.88,31.88,0,0,0,7.52-6.31l24,25.22a46.24,46.24,0,0,1-20,12.25,75.61,75.61,0,0,1-21.94,3.51A74.44,74.44,0,0,1,281,349.31a61.57,61.57,0,0,1-20.85-12.49,58.56,58.56,0,0,1-13.94-19.52,66.08,66.08,0,0,1,0-50.91,58.62,58.62,0,0,1,13.94-19.51A61.75,61.75,0,0,1,281,234.38,74.44,74.44,0,0,1,306.58,230a75.27,75.27,0,0,1,21.94,3.51,46.43,46.43,0,0,1,20,12.25Z" transform="translate(-32.41 -167.49)"/><path class="cls-1" d="M398,167.49v81.45h.48a21.8,21.8,0,0,1,4.12-6.79,32.32,32.32,0,0,1,7-6.06,38.89,38.89,0,0,1,9.7-4.37A42.21,42.21,0,0,1,431.43,230q13.81,0,22.3,4.25A32.3,32.3,0,0,1,467,246a47.61,47.61,0,0,1,6.41,17.7,134.49,134.49,0,0,1,1.71,22.06v65H438.7V293.05q0-5.07-.37-10.53a33.29,33.29,0,0,0-2.17-10.07,17.45,17.45,0,0,0-5.58-7.51Q426.83,262,419.79,262c-4.68,0-8.49.84-11.39,2.55a17.31,17.31,0,0,0-6.67,6.78,28,28,0,0,0-3,9.58,83.46,83.46,0,0,0-.72,11.15v58.67H361.61V167.49Z" transform="translate(-32.41 -167.49)"/><path class="cls-2" d="M125.71,402.27a19.17,19.17,0,0,1-7.34,5.74,22.15,22.15,0,0,1-9.21,2,24.73,24.73,0,0,1-8.53-1.46,20.58,20.58,0,0,1-6.95-4.15A19.62,19.62,0,0,1,89,397.91a21.91,21.91,0,0,1,0-17,19.68,19.68,0,0,1,4.64-6.51,20.77,20.77,0,0,1,6.95-4.16,24.73,24.73,0,0,1,8.53-1.45,19.36,19.36,0,0,1,7.63,1.45,16.08,16.08,0,0,1,5.82,4.16,19.17,19.17,0,0,1,3.68,6.51,26.3,26.3,0,0,1,1.28,8.48v3.8H99.46a9.53,9.53,0,0,0,3.15,5.54,8.87,8.87,0,0,0,6,2.06,9.17,9.17,0,0,0,5-1.32,14.31,14.31,0,0,0,3.6-3.44ZM115.46,385a7,7,0,0,0-2-5.26,7.17,7.17,0,0,0-5.42-2.17,8.93,8.93,0,0,0-3.55.64,8.1,8.1,0,0,0-2.62,1.66,7.21,7.21,0,0,0-1.71,2.32,7.88,7.88,0,0,0-.68,2.81Z" transform="translate(-32.41 -167.49)"/><path class="cls-2" d="M130.81,369.8H143.9l9.94,26.66H154l9.22-26.66h12.2L159.9,409.06H147.06Z" transform="translate(-32.41 -167.49)"/><path class="cls-2" d="M217,402.27a19.34,19.34,0,0,1-7.37,5.74,22.12,22.12,0,0,1-9.21,2,24.76,24.76,0,0,1-8.52-1.46,20.58,20.58,0,0,1-6.95-4.15,19.62,19.62,0,0,1-4.64-6.52,22,22,0,0,1,0-17,19.68,19.68,0,0,1,4.64-6.51,20.77,20.77,0,0,1,6.95-4.16,24.76,24.76,0,0,1,8.52-1.45,19.34,19.34,0,0,1,7.64,1.45,16.08,16.08,0,0,1,5.82,4.16,19.17,19.17,0,0,1,3.68,6.51,26.3,26.3,0,0,1,1.29,8.48v3.8H190.77a9.64,9.64,0,0,0,3.15,5.54,8.87,8.87,0,0,0,6,2.06,9.15,9.15,0,0,0,5-1.32,14.31,14.31,0,0,0,3.6-3.44ZM206.77,385a7,7,0,0,0-2-5.26,7.14,7.14,0,0,0-5.41-2.17,9.06,9.06,0,0,0-3.57.64,8.43,8.43,0,0,0-2.62,1.66,7.33,7.33,0,0,0-1.7,2.32,7.88,7.88,0,0,0-.68,2.81Z" transform="translate(-32.41 -167.49)"/><path class="cls-2" d="M226.24,369.8h11.64v5.33H238a10.54,10.54,0,0,1,1.62-2.27,11.34,11.34,0,0,1,2.51-2,14.41,14.41,0,0,1,7.36-2,16.78,16.78,0,0,1,7.43,1.42,10.59,10.59,0,0,1,4.39,3.92,15.7,15.7,0,0,1,2.15,5.9,45.46,45.46,0,0,1,.56,7.35v21.65H252V389.83c0-1.12,0-2.31-.13-3.52a11.47,11.47,0,0,0-.72-3.34,5.21,5.21,0,0,0-5.46-3.48,7.46,7.46,0,0,0-3.8.84,5.94,5.94,0,0,0-2.22,2.26,9.3,9.3,0,0,0-1,3.21,27.61,27.61,0,0,0-.25,3.71v19.55H226.24Z" transform="translate(-32.41 -167.49)"/><path class="cls-2" d="M299.37,379.49H288.71v13.09a23.79,23.79,0,0,0,.16,2.94,5.72,5.72,0,0,0,.73,2.3,3.56,3.56,0,0,0,1.74,1.51,7.67,7.67,0,0,0,3.11.51,19.55,19.55,0,0,0,2.54-.19,4.35,4.35,0,0,0,2.38-.93v10.1a18.34,18.34,0,0,1-4.2,1,36.89,36.89,0,0,1-4.28.25,23.9,23.9,0,0,1-5.66-.65,13.18,13.18,0,0,1-4.52-2.06,9.52,9.52,0,0,1-3-3.68,12.57,12.57,0,0,1-1.1-5.5V379.49h-7.75V369.8h7.75V358.16h12.13V369.8h10.66Z" transform="translate(-32.41 -167.49)"/><path class="cls-2" d="M332.58,367h11.63v5.33h.16A10,10,0,0,1,346,370a11.85,11.85,0,0,1,2.52-2,13.83,13.83,0,0,1,7.34-2,15.38,15.38,0,0,1,7.32,1.69A10.74,10.74,0,0,1,368,373a13.06,13.06,0,0,1,5.1-5.4,17.5,17.5,0,0,1,14-.3,11,11,0,0,1,4.28,3.64,15.53,15.53,0,0,1,2.26,5.43,30.44,30.44,0,0,1,.69,6.65v23.2H382.2V383.37a9.09,9.09,0,0,0-1.18-4.73q-1.17-2-4.16-2a8.11,8.11,0,0,0-3.51.67,5.83,5.83,0,0,0-2.27,1.92,7.78,7.78,0,0,0-1.21,2.81,15.68,15.68,0,0,0-.36,3.4v20.77H357.39V385.46c0-.7,0-1.56-.08-2.59a10.44,10.44,0,0,0-.57-2.91,5.48,5.48,0,0,0-1.57-2.33,4.73,4.73,0,0,0-3.2-1,7.42,7.42,0,0,0-3.79.84,5.8,5.8,0,0,0-2.22,2.26,9.13,9.13,0,0,0-1,3.19,29.85,29.85,0,0,0-.24,3.73v19.55H332.58Z" transform="translate(-32.41 -167.49)"/><path class="cls-2" d="M427.53,401.3h-.17a11.43,11.43,0,0,1-5.37,4.53,18.55,18.55,0,0,1-7.07,1.37,18,18,0,0,1-5.3-.78,13.29,13.29,0,0,1-4.48-2.29,11.31,11.31,0,0,1-3.07-3.81,11.62,11.62,0,0,1-1.13-5.24,12.11,12.11,0,0,1,1.25-5.74,11.63,11.63,0,0,1,3.4-3.88,17.13,17.13,0,0,1,4.89-2.39,37.58,37.58,0,0,1,5.69-1.24,51.16,51.16,0,0,1,5.91-.48c2-.06,3.78-.1,5.45-.1a6.34,6.34,0,0,0-2.3-5.13,8.41,8.41,0,0,0-5.46-1.89,12,12,0,0,0-5.45,1.24,15.18,15.18,0,0,0-4.41,3.45l-6.46-6.63a22.29,22.29,0,0,1,7.92-4.74,28.52,28.52,0,0,1,9.37-1.56,24.73,24.73,0,0,1,8.77,1.32,12.91,12.91,0,0,1,5.49,3.93,15,15,0,0,1,2.87,6.34,41.57,41.57,0,0,1,.81,8.69v20H427.53Zm-3-12.29c-.92,0-2.06,0-3.44.13a16.76,16.76,0,0,0-4,.69,8.81,8.81,0,0,0-3.22,1.68,3.92,3.92,0,0,0-1.35,3.17,3.5,3.5,0,0,0,1.86,3.23,7.73,7.73,0,0,0,3.88,1,11.59,11.59,0,0,0,3.44-.5,9.75,9.75,0,0,0,2.95-1.37,6.57,6.57,0,0,0,2.06-2.26,6.49,6.49,0,0,0,.77-3.23V389Z" transform="translate(-32.41 -167.49)"/><path class="cls-2" d="M446.28,367h11.63v5.33h.17A9.39,9.39,0,0,1,459.7,370a11.18,11.18,0,0,1,2.49-2,14.37,14.37,0,0,1,3.32-1.46,13.7,13.7,0,0,1,4-.56,16.72,16.72,0,0,1,7.43,1.42,10.58,10.58,0,0,1,4.41,3.92,15.8,15.8,0,0,1,2.14,5.9,45.34,45.34,0,0,1,.57,7.33v21.67H472V387c0-1.13,0-2.3-.12-3.52a11.16,11.16,0,0,0-.73-3.34,5.63,5.63,0,0,0-1.86-2.5,5.79,5.79,0,0,0-3.59-1,7.48,7.48,0,0,0-3.8.84,5.8,5.8,0,0,0-2.22,2.26,9.55,9.55,0,0,0-1,3.19,28.06,28.06,0,0,0-.24,3.73v19.55H446.28Z" transform="translate(-32.41 -167.49)"/><path class="cls-2" d="M517.3,401.3h-.15a11.55,11.55,0,0,1-5.38,4.53,18.56,18.56,0,0,1-7.08,1.37,18,18,0,0,1-5.28-.78,13.15,13.15,0,0,1-4.49-2.29,11.19,11.19,0,0,1-3.07-3.81,11.62,11.62,0,0,1-1.13-5.24,12.11,12.11,0,0,1,1.25-5.74,11.31,11.31,0,0,1,3.4-3.88,16.94,16.94,0,0,1,4.88-2.39,37.71,37.71,0,0,1,5.7-1.24,51,51,0,0,1,5.9-.48c2-.06,3.78-.1,5.45-.1a6.31,6.31,0,0,0-2.3-5.13,8.4,8.4,0,0,0-5.45-1.89,12,12,0,0,0-5.46,1.24,15.14,15.14,0,0,0-4.4,3.45l-6.46-6.63a22.42,22.42,0,0,1,7.91-4.74,28.56,28.56,0,0,1,9.37-1.56,24.83,24.83,0,0,1,8.78,1.32,13,13,0,0,1,5.49,3.93,15,15,0,0,1,2.87,6.34,42.26,42.26,0,0,1,.81,8.69v20H517.3Zm-3-12.29c-.91,0-2.06,0-3.43.13a16.67,16.67,0,0,0-4,.69,9.07,9.07,0,0,0-3.24,1.68,4,4,0,0,0-1.32,3.17,3.46,3.46,0,0,0,1.86,3.23,7.62,7.62,0,0,0,3.88,1,11.62,11.62,0,0,0,3.43-.5,9.75,9.75,0,0,0,3-1.37,6.67,6.67,0,0,0,2.06-2.26,6.48,6.48,0,0,0,.76-3.23V389Z" transform="translate(-32.41 -167.49)"/><path class="cls-2" d="M577.27,402.92c0,7.42-1.88,13.08-5.63,16.91s-9.43,5.79-17.08,5.79a47.25,47.25,0,0,1-10.35-1.16,23.61,23.61,0,0,1-9.37-4.57l6.71-10a25.67,25.67,0,0,0,5.93,3.71,16.74,16.74,0,0,0,6.83,1.38c3.72,0,6.45-.89,8.21-2.72a9.53,9.53,0,0,0,2.63-6.9v-3.8H565a11.56,11.56,0,0,1-5.21,4,16.92,16.92,0,0,1-5.86,1.16,20.36,20.36,0,0,1-7.92-1.49,17.56,17.56,0,0,1-6.1-4.2,18.91,18.91,0,0,1-3.92-6.43,23.48,23.48,0,0,1-1.37-8.16,23.88,23.88,0,0,1,1.24-7.61,20.65,20.65,0,0,1,3.57-6.53,17.88,17.88,0,0,1,5.61-4.58,16,16,0,0,1,7.52-1.72,18.2,18.2,0,0,1,8.57,2,14.19,14.19,0,0,1,2.9,2,12.81,12.81,0,0,1,1.94,2.14h.16V367h11.16Zm-30.56-16.58a9.45,9.45,0,0,0,.74,3.68,9.14,9.14,0,0,0,2,3.07,11.32,11.32,0,0,0,3.08,2.16,9.72,9.72,0,0,0,7.63,0,10.89,10.89,0,0,0,3.11-2.16,9,9,0,0,0,2.06-3.07,9.62,9.62,0,0,0,0-7.35,9.32,9.32,0,0,0-2.06-3.07,10.64,10.64,0,0,0-3.11-2.14,9.5,9.5,0,0,0-7.63,0,11,11,0,0,0-3.08,2.14,9.6,9.6,0,0,0-2.79,6.74Z" transform="translate(-32.41 -167.49)"/><path class="cls-2" d="M624.13,399.44a19.08,19.08,0,0,1-7.35,5.73,22,22,0,0,1-9.22,2,25,25,0,0,1-8.52-1.45,20.56,20.56,0,0,1-6.95-4.17,19.56,19.56,0,0,1-4.65-6.5,22.05,22.05,0,0,1,0-17,19.67,19.67,0,0,1,4.65-6.5,20.52,20.52,0,0,1,6.95-4.15,24.53,24.53,0,0,1,8.52-1.46,19.29,19.29,0,0,1,7.65,1.46A15.79,15.79,0,0,1,621,371.6a19.12,19.12,0,0,1,3.68,6.5,26.36,26.36,0,0,1,1.29,8.49v3.81H597.87a9.51,9.51,0,0,0,3.15,5.52,9.87,9.87,0,0,0,11,.72,13.41,13.41,0,0,0,3.6-3.42Zm-10.27-17.29a7,7,0,0,0-2-5.26,7.21,7.21,0,0,0-5.42-2.18,9,9,0,0,0-6.18,2.31,7.23,7.23,0,0,0-1.69,2.34,7.54,7.54,0,0,0-.69,2.79Z" transform="translate(-32.41 -167.49)"/><path class="cls-2" d="M633.35,367H645v5.33h.16a9.39,9.39,0,0,1,1.62-2.27,11.72,11.72,0,0,1,2.5-2,14.1,14.1,0,0,1,3.31-1.46,13.75,13.75,0,0,1,4-.56,15.38,15.38,0,0,1,7.32,1.69,10.71,10.71,0,0,1,4.81,5.33,13,13,0,0,1,5.09-5.4,17.5,17.5,0,0,1,14-.3,10.92,10.92,0,0,1,4.28,3.64,15.35,15.35,0,0,1,2.26,5.43,30.42,30.42,0,0,1,.7,6.65v23.2H683V383.37a9,9,0,0,0-1.18-4.73c-.77-1.32-2.17-2-4.15-2a8.08,8.08,0,0,0-3.51.67,5.79,5.79,0,0,0-2.28,1.92,8.14,8.14,0,0,0-1.21,2.81,16.33,16.33,0,0,0-.36,3.4v20.77H658.15V385.46c0-.7,0-1.56-.08-2.59a10.09,10.09,0,0,0-.57-2.91,5.48,5.48,0,0,0-1.57-2.33,4.7,4.7,0,0,0-3.19-1,7.43,7.43,0,0,0-3.8.84,5.8,5.8,0,0,0-2.22,2.26,9.34,9.34,0,0,0-1,3.19,28.06,28.06,0,0,0-.24,3.73v19.55H633.35Z" transform="translate(-32.41 -167.49)"/><path class="cls-2" d="M740.82,399.44a19.19,19.19,0,0,1-7.36,5.73,22,22,0,0,1-9.21,2,24.91,24.91,0,0,1-8.52-1.45,20.37,20.37,0,0,1-7-4.17,19.26,19.26,0,0,1-4.64-6.5,21.93,21.93,0,0,1,0-17,19.36,19.36,0,0,1,4.64-6.5,20.32,20.32,0,0,1,7-4.15,24.45,24.45,0,0,1,8.52-1.46,19.19,19.19,0,0,1,7.63,1.46,15.78,15.78,0,0,1,5.83,4.15,19.29,19.29,0,0,1,3.68,6.5,26.64,26.64,0,0,1,1.29,8.49v3.81H714.55a9.57,9.57,0,0,0,3.15,5.52,9.87,9.87,0,0,0,11,.72,13.27,13.27,0,0,0,3.6-3.42Zm-10.27-17.29a7,7,0,0,0-2-5.26,7.2,7.2,0,0,0-5.41-2.18,8.77,8.77,0,0,0-3.56.66,8.48,8.48,0,0,0-2.62,1.65,6.94,6.94,0,0,0-1.69,2.34,7.55,7.55,0,0,0-.7,2.79Z" transform="translate(-32.41 -167.49)"/><path class="cls-2" d="M750,367h11.64v5.33h.17a9.92,9.92,0,0,1,1.61-2.27,12,12,0,0,1,2.51-2,13.92,13.92,0,0,1,3.31-1.46,13.75,13.75,0,0,1,4-.56,16.66,16.66,0,0,1,7.43,1.42,10.43,10.43,0,0,1,4.4,3.92,15.63,15.63,0,0,1,2.14,5.9,44.19,44.19,0,0,1,.58,7.33v21.67H775.73V387c0-1.13,0-2.3-.13-3.52a10.86,10.86,0,0,0-.73-3.34,5.63,5.63,0,0,0-1.86-2.5,5.77,5.77,0,0,0-3.59-1,7.48,7.48,0,0,0-3.8.84,6,6,0,0,0-2.23,2.26,9.77,9.77,0,0,0-1,3.19,29.85,29.85,0,0,0-.24,3.73v19.55H750Z" transform="translate(-32.41 -167.49)"/><path class="cls-2" d="M823.16,376.66H812.49v13.09a26.33,26.33,0,0,0,.16,2.94,6,6,0,0,0,.74,2.31,3.51,3.51,0,0,0,1.74,1.5,7.61,7.61,0,0,0,3.1.51,21.89,21.89,0,0,0,2.54-.2,4.37,4.37,0,0,0,2.39-.92V406a18.08,18.08,0,0,1-4.2,1,42.05,42.05,0,0,1-4.29.24,23.45,23.45,0,0,1-5.66-.65,13,13,0,0,1-4.52-2.05,9.81,9.81,0,0,1-3-3.68,12.4,12.4,0,0,1-1.1-5.5V376.66H792.6V367h7.77V355.33h12.12V367h10.67Z" transform="translate(-32.41 -167.49)"/></svg>