<svg xmlns="http://www.w3.org/2000/svg" xmlns:xlink="http://www.w3.org/1999/xlink" width="160" height="160" viewBox="0 0 160 160">
  <defs>
    <clipPath id="clip-path">
      <rect id="Rectangle_823" data-name="Rectangle 823" width="160" height="160" transform="translate(315 2915)" fill="#a92ea3" stroke="#707070" stroke-width="1"/>
    </clipPath>
  </defs>
  <g id="Mask_Group_20" data-name="Mask Group 20" transform="translate(-315 -2915)" clip-path="url(#clip-path)">
    <g id="cycling" transform="translate(312.419 2912.419)">
      <path id="Path_495" data-name="Path 495" d="M147.1,117.453V100.17a7.723,7.723,0,0,0-2.581-15.009h-3.055a7.655,7.655,0,0,0,.475-2.581,7.751,7.751,0,0,0-7.742-7.742H118.3a15.409,15.409,0,0,1-13.063-7.172l-4.271-6.712,1.69-6.761h.565a12.918,12.918,0,0,0,12.9-12.9V22.181a10.537,10.537,0,0,0-5.394-19.6H100.077A25.238,25.238,0,0,0,84.312,47.528l.227.183A41.855,41.855,0,0,0,54.194,88.137V92.9a18.217,18.217,0,0,0,.266,2.973,7.72,7.72,0,0,0,2.315,15.092h6.333l5.494,8.55-5.262,3.946a23.2,23.2,0,1,0,6.186,18.472H75.12a12.893,12.893,0,1,0,25.265,5.161h.261a5.166,5.166,0,0,0,5.161-5.161,10.23,10.23,0,0,0-2.3-6.413l28.1-21.858v3.788a23.226,23.226,0,1,0,15.484,0Zm-15.484,17.809v1.512H121.507a17.981,17.981,0,0,1,3.394-8.225Zm-46.452-15.59-5.321-8.279a7.726,7.726,0,0,1,5.321,7.316Zm-7.742-13.866H72.258a12.918,12.918,0,0,1-12.9-12.9V90.323H80.248a20.418,20.418,0,0,1,20.4,20.4,26.155,26.155,0,0,1-.5,5.1l-3.19,15.946a10.183,10.183,0,0,0-1.468-.15H90.323v-12.9A12.918,12.918,0,0,0,77.419,105.806ZM105.2,116.828a31.2,31.2,0,0,0,.594-5.861h20.877l-24.036,18.7Zm26.41-11.022H105.321a25.616,25.616,0,0,0-20.1-20.15,14.869,14.869,0,0,1,3.9-8.973l1.714,2.284a28.522,28.522,0,0,0,22.71,11.355h8.183a7.746,7.746,0,0,0,7.3,10.323h2.581Zm10.323-5.161v31.443a7.25,7.25,0,0,0-5.161,0V100.645Zm-2.581,41.29a2.581,2.581,0,1,1,2.581-2.581A2.585,2.585,0,0,1,139.355,141.935Zm-7.267,0a7.686,7.686,0,0,0,.3.735l-7.481,7.481a17.951,17.951,0,0,1-3.409-8.217Zm3.951,4.385c.24.114.485.209.735.3V157.21a17.927,17.927,0,0,1-8.217-3.412Zm5.9.3a7.688,7.688,0,0,0,.735-.3l7.481,7.481a17.951,17.951,0,0,1-8.217,3.409Zm4.385-3.951a7.573,7.573,0,0,0,.3-.735H157.21a17.927,17.927,0,0,1-3.412,8.217Zm.777-5.9v-1.512l6.715-6.715a18.049,18.049,0,0,1,3.394,8.225H147.1Zm3.045-11.855-3.045,3.045v-4.908A17.906,17.906,0,0,1,150.142,124.919ZM147.1,92.9a2.585,2.585,0,0,1-2.581,2.581H129.032a2.581,2.581,0,1,1,0-5.161h15.484A2.585,2.585,0,0,1,147.1,92.9ZM118.3,80h15.889a2.581,2.581,0,1,1,0,5.161H113.548a23.35,23.35,0,0,1-16.7-7.1l6.875-4.126A20.508,20.508,0,0,0,118.3,80Zm-7.337-38.71a7.751,7.751,0,0,1-7.742,7.742h-4.6l-1.481,5.923-4.054-6.372L95.76,37.917l-4.681-4.681a2.569,2.569,0,0,1-.756-1.827v-.441A2.585,2.585,0,0,1,92.9,28.387H94.5l1.868-3.734a2.565,2.565,0,0,1,2.307-1.427h12.294ZM80,27.819A20.1,20.1,0,0,1,100.077,7.742h10.655a5.393,5.393,0,0,1,2.415,10.217l-.209.106H98.674a7.7,7.7,0,0,0-6.924,4.279l-.534,1.068a7.753,7.753,0,0,0-6.054,7.556v.441a7.7,7.7,0,0,0,2.268,5.476L90.046,39.5l-1.252,5L87.535,43.5A19.984,19.984,0,0,1,80,27.819Zm9.071,24.054,11.437,17.974L93.572,74.01l-6.346-8.462-4.129,3.1,2.885,3.848A20.083,20.083,0,0,0,80.09,85.161H59.484A36.733,36.733,0,0,1,89.071,51.874ZM54.194,103.226a2.554,2.554,0,0,1,1.84-2.431,18.121,18.121,0,0,0,3.605,5.012H56.774a2.585,2.585,0,0,1-2.581-2.581Zm19.236,7.742,11.732,18.25v6.514L69.244,110.968ZM46.452,141.936a2.581,2.581,0,1,1,2.581-2.581A2.585,2.585,0,0,1,46.452,141.936Zm-2.581-9.848a7.687,7.687,0,0,0-.735.3l-7.481-7.481a17.954,17.954,0,0,1,8.217-3.412Zm-4.385,3.951a7.568,7.568,0,0,0-.3.735H28.594a17.927,17.927,0,0,1,3.412-8.217Zm-.3,5.9a7.689,7.689,0,0,0,.3.735L32,150.152a17.951,17.951,0,0,1-3.409-8.217Zm3.951,4.385c.24.114.485.209.735.3V157.21a17.926,17.926,0,0,1-8.217-3.412Zm5.9.3a7.691,7.691,0,0,0,.735-.3l7.481,7.481a17.951,17.951,0,0,1-8.217,3.409Zm5.161-9.848,8.106-6.08a17.91,17.91,0,0,1,2.01,6.08Zm-3.455-3.858a7.721,7.721,0,0,0-1.706-.826V121.5A18.025,18.025,0,0,1,59.2,126.57ZM60.9,150.152l-7.481-7.481a7.565,7.565,0,0,0,.3-.735H64.307A17.9,17.9,0,0,1,60.9,150.152Zm8.627-13.378a23,23,0,0,0-3.084-9.187l4.96-3.719L78.748,135.3a12.718,12.718,0,0,0-1.316,1.479Zm18.217,15.484A7.751,7.751,0,0,1,80,144.516a7.66,7.66,0,0,1,1.654-4.7l3.154,4.906a5.145,5.145,0,0,0,4.343,2.372h5.858a7.731,7.731,0,0,1-7.267,5.161Zm2.581-10.323v-5.161h5.161a5.166,5.166,0,0,1,5.161,5.161Zm41.29-13.972-3.045-3.045a17.806,17.806,0,0,1,3.045-1.863Z" fill="#a92ea3"/>
      <path id="Path_496" data-name="Path 496" d="M18.065,33.548H69.677V38.71H18.065Z" fill="#a92ea3"/>
      <path id="Path_497" data-name="Path 497" d="M2.581,33.548H12.9V38.71H2.581Z" fill="#a92ea3"/>
      <path id="Path_498" data-name="Path 498" d="M38.71,43.871H59.355v5.161H38.71Z" fill="#a92ea3"/>
      <path id="Path_499" data-name="Path 499" d="M23.226,43.871H33.548v5.161H23.226Z" fill="#a92ea3"/>
      <path id="Path_500" data-name="Path 500" d="M7.742,54.194h41.29v5.161H7.742Z" fill="#a92ea3"/>
      <path id="Path_501" data-name="Path 501" d="M18.065,64.516H38.71v5.161H18.065Z" fill="#a92ea3"/>
    </g>
  </g>
</svg>
