<svg xmlns="http://www.w3.org/2000/svg" xmlns:xlink="http://www.w3.org/1999/xlink" width="205.767" height="265" viewBox="0 0 205.767 265">
  <defs>
    <linearGradient id="linear-gradient" x1="0.5" y1="0.098" x2="0.5" y2="0.649" gradientUnits="objectBoundingBox">
      <stop offset="0" stop-color="#a92ea3"/>
      <stop offset="0.489" stop-color="#f8ca37"/>
      <stop offset="1" stop-color="#00a2d3"/>
    </linearGradient>
  </defs>
  <g id="Group_131" data-name="Group 131" transform="translate(-9657 -2804)">
    <path id="Path_830" data-name="Path 830" d="M279.042,83.37a27.371,27.371,0,0,0-46.726-19.354l-11.8,11.8-11.8-11.8a27.371,27.371,0,0,0-38.709,38.709l29.345,29.345a24.4,24.4,0,0,0-12.628,8.73l-14.961,19.95a24.232,24.232,0,0,0-4.212,20.139l15.42,65.541V294.5a4.417,4.417,0,0,0,4.417,4.417h57.417a4.417,4.417,0,0,0,4.417-4.417V256.3l6.242-7.8A52.333,52.333,0,0,0,266.9,215.924a44.7,44.7,0,0,0-1.3-10.647,15.617,15.617,0,0,0,4.322-17.529l-1.972-4.928a14.173,14.173,0,0,0,.1-10.783l-5.792-14.473a15.448,15.448,0,0,0-10.821-26.482h-8.77l28.357-28.358a27.193,27.193,0,0,0,8.017-19.354ZM248.573,242.978l-7.21,9.011a4.417,4.417,0,0,0-.968,2.76v35.333H191.812V245.916a4.4,4.4,0,0,0-.118-1.011l-15.538-66.039a15.421,15.421,0,0,1,2.681-12.816L193.8,146.1a15.53,15.53,0,0,1,12.367-6.183h4.013a18.206,18.206,0,0,0-.7,5.018v8.232h-4.417a4.417,4.417,0,1,0,0,8.833h4.417v6.47L198.2,175.991a4.417,4.417,0,1,0,4.9,7.349l6.383-4.256v18.8a4.417,4.417,0,1,0,8.833,0V144.934a9.435,9.435,0,0,1,18.83-.854l1.27,13.945v.015l2,22.028a4.42,4.42,0,0,0,.95,2.359l8.811,11.012a36.132,36.132,0,0,1,7.888,22.486,43.464,43.464,0,0,1-9.489,27.053Zm10.63-52.155a14.176,14.176,0,0,0,2.087-.857l.425,1.064a6.637,6.637,0,0,1,.186,4.365,44.876,44.876,0,0,0-2.7-4.57Zm.645-15.5a5.362,5.362,0,0,1-6.515,7.129,4.456,4.456,0,0,0-.761-.15l-3.484-4.355L247.641,162h3.8a15.465,15.465,0,0,0,2.967-.289Zm-1.786-28.778a6.632,6.632,0,0,1-6.625,6.625h-4.6l-.9-9.886a18.64,18.64,0,0,0-.621-3.364h6.119a6.632,6.632,0,0,1,6.625,6.625Zm6.716-50.063-31.145,31.145a18.439,18.439,0,0,0-5.887-.957,18.191,18.191,0,0,0-11.906,4.423q-.121-.007-.243-.007h-4.73l-34.6-34.6a18.537,18.537,0,0,1,26.216-26.216L217.4,85.181a4.417,4.417,0,0,0,6.246,0l14.919-14.918a18.537,18.537,0,1,1,26.216,26.216Z" transform="translate(9547.604 2770.084)" fill="url(#linear-gradient)"/>
    <path id="Path_831" data-name="Path 831" d="M269.71,157.293l-4.417,4.417a4.417,4.417,0,1,0,6.246,6.246l4.417-4.417a4.417,4.417,0,1,0-6.246-6.246Z" transform="translate(9501.917 2725.292)" fill="#f8ca37"/>
    <path id="Path_832" data-name="Path 832" d="M304.335,117.293l-11.042,11.042a4.417,4.417,0,1,0,6.246,6.246l11.042-11.042a4.417,4.417,0,0,0-6.246-6.246Z" transform="translate(9489.375 2743.208)" fill="#a92ea3"/>
    <path id="Path_833" data-name="Path 833" d="M105.776,16a4.417,4.417,0,0,0-4.417,4.417V29.25a4.417,4.417,0,1,0,8.833,0V20.417A4.417,4.417,0,0,0,105.776,16Z" transform="translate(9574.767 2788)" fill="#a92ea3"/>
    <path id="Path_834" data-name="Path 834" d="M80.992,41.008l-7.65-4.417a4.417,4.417,0,1,0-4.417,7.65l7.65,4.417a4.417,4.417,0,1,0,4.417-7.65Z" transform="translate(9590.283 2779.042)" fill="#a92ea3"/>
    <path id="Path_835" data-name="Path 835" d="M76.575,68.591l-7.65,4.417a4.417,4.417,0,1,0,4.417,7.65l7.65-4.417a4.417,4.417,0,1,0-4.417-7.65Z" transform="translate(9590.283 2764.709)" fill="#a92ea3"/>
    <path id="Path_836" data-name="Path 836" d="M105.776,80a4.417,4.417,0,0,0-4.417,4.417V93.25a4.417,4.417,0,0,0,8.833,0V84.417A4.417,4.417,0,0,0,105.776,80Z" transform="translate(9574.767 2759.333)" fill="#a92ea3"/>
    <path id="Path_837" data-name="Path 837" d="M136.418,73.008l-7.65-4.417a4.417,4.417,0,1,0-4.417,7.65L132,80.658a4.417,4.417,0,1,0,4.417-7.65Z" transform="translate(9565.457 2764.709)" fill="#a92ea3"/>
    <path id="Path_838" data-name="Path 838" d="M132,36.591l-7.65,4.417a4.417,4.417,0,1,0,4.417,7.65l7.65-4.417A4.417,4.417,0,1,0,132,36.591Z" transform="translate(9565.457 2779.042)" fill="#a92ea3"/>
    <path id="Path_839" data-name="Path 839" d="M400.13,200a4.417,4.417,0,0,0-4.417,4.417v4.417a4.417,4.417,0,1,0,8.833,0v-4.417A4.417,4.417,0,0,0,400.13,200Z" transform="translate(9442.92 2705.583)" fill="#f8ca37"/>
    <path id="Path_840" data-name="Path 840" d="M374.033,188.591l-3.825,2.208a4.417,4.417,0,1,0,4.417,7.65l3.825-2.208a4.417,4.417,0,1,0-4.417-7.65Z" transform="translate(9455.334 2710.959)" fill="#f8ca37"/>
    <path id="Path_841" data-name="Path 841" d="M378.449,162.8l-3.825-2.208a4.417,4.417,0,1,0-4.417,7.65l3.825,2.208a4.417,4.417,0,1,0,4.417-7.65Z" transform="translate(9455.334 2723.5)" fill="#f8ca37"/>
    <path id="Path_842" data-name="Path 842" d="M400.13,144a4.417,4.417,0,0,0-4.417,4.417v4.417a4.417,4.417,0,1,0,8.833,0v-4.417A4.417,4.417,0,0,0,400.13,144Z" transform="translate(9442.92 2730.667)" fill="#f8ca37"/>
    <path id="Path_843" data-name="Path 843" d="M420.916,171.04a4.4,4.4,0,0,0,2.2-.592l3.825-2.208a4.417,4.417,0,0,0-4.417-7.651L418.7,162.8a4.417,4.417,0,0,0,2.213,8.243Z" transform="translate(9433.612 2723.501)" fill="#f8ca37"/>
    <path id="Path_844" data-name="Path 844" d="M426.946,190.8l-3.825-2.208a4.417,4.417,0,0,0-4.417,7.651l3.825,2.208a4.417,4.417,0,1,0,4.417-7.651Z" transform="translate(9433.611 2710.959)" fill="#f8ca37"/>
  </g>
</svg>
