<svg xmlns="http://www.w3.org/2000/svg" width="299.002" height="480.574" viewBox="0 0 299.002 480.574">
  <path id="Union_18" data-name="Union 18" d="M1.061,0A75.54,75.54,0,0,0,0,9.289L2.247,17.2a2.357,2.357,0,0,0,3.021,1.587l.946-.319,8.467,17.466-6.45,1.208C26.181,65.257,53.171,166.954,81.738,234.15H64.474c-3.546-8.026-5.989-13.591-6.4-14.6-2.725-6.747,3.042-17.023,5.508-22.545-3.887-1.738-5.694.481-7.671,2.7-2.107,2.366-4.411,4.73-9.639,2.3-6.691-3.108-12.222-8.044-18.814-8.044h0a15.312,15.312,0,0,0-8.155,2.544c-1.314.81-2.754,3.859.724,6.242,8.667,5.937,21.156,16.326,22.844,19.745.651,1.319,2.254,5.595,4.426,11.659H46.41q20.9,111.108,87.964,172.223l5.646,26.289c-4.568,2.857-8.034,8.454-9.075,14.681A24.489,24.489,0,0,0,131.5,457.9a26.221,26.221,0,0,0,.84,2.548,18.307,18.307,0,0,0,2.825,7.078c5.7,14.168,22.087,12.68,34.567,11.19,6.528-.779,11.987-1.559,14.287-.1,1.054-6.6-.953-12.321-7.956-14.77,6.4-13.186,5.455-44.228-3.2-46.456-3.518-.906-11.012,1.312-18.64,5.9l2.939-20.769,10.646-2.435q0-2,.032-3.956c6.05-42.765,33.295-69.322,92.246-59.98l.107-.772,8.929,1.217q13.955,7.753,25.675,10.5c2.2.064,5.7-.735.486-5.075s-10.5-9.14-9.569-11.456,5.774-1.454,6.578-5.016q.8-3.561-23.6-1.157l-6.609-2.617,6.056-43.507c-30.1-3.885-58.246.687-79.542,15.019,1.66-5.922,3.215-11.881,4.569-17.962h-9.928c23.088-19.615,96.424-83.052,98.9-99.483,2.943-19.51-13.2-57.8-54.371-104.211l-2.419.88c-3.2-5.2-5.687-9.194-7.072-11.408.414.024.658.046.658.046L222.453,65a1.178,1.178,0,0,0,1.688.053l24.308-23.472s3.28-1.777,8.289-4.324-.352-9.7-.352-9.7l-62.427,22.7a75.49,75.49,0,0,0,2.183,9.091l4.821,6.667a2.358,2.358,0,0,0,3.383.459l1.421-1.136c.949,2.186,2.856,6.581,5.357,12.36l-2.875,1.045c14.193,51.919,30.886,79.906,29.19,82.763-1.037,1.747-48.816,21-86.354,51.023C116.2,142.1,57.346,57.271,39.635,31.26L29.4,33.178l-5.119-8.929.08-.033L55.235,10.466s3.691-.55,9.27-1.232S67.5,0,67.5,0ZM210.228,61.761c.2-.072.412-.139.634-.2l-.749.291Z" transform="translate(298.502 480.074) rotate(180)" fill="#f8f8f8" stroke="rgba(0,0,0,0)" stroke-miterlimit="10" stroke-width="1"/>
</svg>
