<svg xmlns="http://www.w3.org/2000/svg" width="259.851" height="432.681" viewBox="0 0 259.851 432.681">
  <path id="Union_17" data-name="Union 17" d="M.972,0A69.462,69.462,0,0,0,0,8.527l2.059,7.262a2.159,2.159,0,0,0,2.768,1.457l.866-.294,7.758,16.033L7.542,34.1c17.858,28.02,45.484,135.68,74.119,195.96H69.5a207.432,207.432,0,0,0-10.78-22.681h-2.09c-.627-1.917-1.066-3.209-1.256-3.678-2.5-6.194,2.788-15.627,5.047-20.7-3.562-1.6-5.217.441-7.028,2.478-1.931,2.171-4.042,4.341-8.832,2.11-6.13-2.854-11.2-7.385-17.239-7.385h0a14,14,0,0,0-7.472,2.336c-1.2.743-2.523,3.542.663,5.729,7.941,5.448,19.384,14.985,20.931,18.125a9.3,9.3,0,0,1,.4.981H41.01c-1.9,61.648,21.418,109.091,40.937,137.694a12.524,12.524,0,0,0-10.719,6.591c-8.7,15.72-5.562,24.375,3.742,27.221C82.7,381.244,89.739,377.6,100.4,376.3a2.076,2.076,0,0,1-.035.648c-.238.837-9.215,7.134-11.75,12.977-2.128,4.906-1.544,12.73,0,18.354a32.179,32.179,0,0,0,9.406,14.909c4.609,3.836,11.805,6.845,17.576,8.044,8.613,1.79,21.208-2.334,25.44-5.121,1.347-.887,1.929-3.279,1.417-3.207a13.61,13.61,0,0,0,3.392-3.978c6.254-11.666,5.511-41.257-2.571-43.342-3.092-.8-9.531,1.042-16.218,4.911a16.878,16.878,0,0,0,2.782-7.868l3.162-.5q0-2.2.076-4.359c31.6-30.807,46.355-84.79,87-113.967l-.729-.905,2.619-1.925a92.6,92.6,0,0,0,23.4-9.411c1.48-1.349,3.268-4.082-2.868-3.61s-12.613.693-13.46-1.4,2.867-4.6,1.155-7.427a.815.815,0,0,0-.747-.4q-3.026,0-15.426,14.578l-1.808.75-2.352-2.917c-18.52,2.3-33.532,8.448-45.612,17.168a11.988,11.988,0,0,0-.02-2.457c15.319-12.942,91.853-78.308,94.279-94.422,2.7-17.909-12.091-53.059-49.818-95.659l-2.216.808c-2.933-4.776-5.211-8.439-6.48-10.472.38.022.6.042.6.042l3.218,3.526a1.078,1.078,0,0,0,1.546.049l22.272-21.546s3.005-1.631,7.595-3.969-.322-8.9-.322-8.9l-57.2,20.835a69.405,69.405,0,0,0,2,8.345l4.417,6.12a2.158,2.158,0,0,0,3.1.421l1.3-1.043c.869,2.006,2.617,6.04,4.908,11.346l-2.634.959c13,47.658,28.3,73.349,26.746,75.971-.95,1.6-44.727,19.28-79.122,46.836C106.471,130.443,52.544,52.57,36.316,28.694l-9.38,1.76-4.69-8.2.073-.029L50.61,9.607s3.382-.5,8.494-1.13S61.843,0,61.843,0Zm191.65,56.693c.184-.067.378-.127.581-.182l-.687.266Z" transform="translate(259.351 432.181) rotate(180)" fill="#f8f8f8" stroke="rgba(0,0,0,0)" stroke-miterlimit="10" stroke-width="1"/>
</svg>
